<svg width="580" height="338" fill="none" xmlns="http://www.w3.org/2000/svg"><path d="M6.469 149.639c6.723 11.895 17.423 21.92 25.662 33.052 23.81 32.167-.962 69.817 9.903 104.488 9.467 30.215 48.844 38.314 77.627 39.542 48.499 2.069 96.945-1.034 143.704-14.186 32.45-9.128 64.938-21.077 99.138-21.801 34.963-.739 67.852 13.297 101.623 19.934 37.088 7.29 81.453-.625 90.39-42.043 5.541-25.659-9.371-49.288-10.767-74.551-1.849-33.445 31.492-51.8 35.808-83.065 2.72-19.714-7.445-37.326-20.705-51.59-13.992-15.049-32.806-28.345-54.392-29.581-22.564-1.293-42.7 10.555-63.79 16.213-59.257 15.884-92.891-37.125-147.433-44.51-24.594-3.336-54.82-1.753-77.156 9.697-20.767 10.648-30.844 34.298-54.137 41.244-24.653 7.351-47.214-7.341-70.642-12.035-24.242-4.856-47.176 3.765-62.336 22.673-14.74 18.33-30.65 42.477-28.822 66.683.553 7.349 2.94 13.844 6.325 19.836Z" fill="url(#a)"/><path d="M154.854 319.463c-14.458 2.891-32.92-12.872-38.868-30.094-6.12-17.721 5.102-25.145 5.014-49.733-.098-27.927-14.628-32.145-24.24-69.797-2.169-8.494-14.718-57.664.836-66.869 14.382-8.533 54.775 15.931 61.855 47.227 5.048 22.313-10.557 31.684-4.597 57.664 5.231 22.805 18.975 23.136 24.239 45.138 6.413 26.797-5.257 62.668-24.239 66.464Z" fill="#91B3FA"/><path d="M153.804 326.23c3.897-30.097-3.706-76.528-10.77-110.179-7.649-36.435-16.324-66.154-16.417-66.456l-1.2.359c.088.295 8.755 29.975 16.394 66.363 7.041 33.553 14.636 79.832 10.757 109.752l1.236.161Z" fill="#7D97F4"/><path d="M138.204 316.101c18.964-9.88 25.454-43.814 14.677-54.84-7.284-7.452-17.731.385-27.808-7.339-12.867-9.862-3.403-28.444-13.519-52.523-8.608-20.5-29.256-39.909-41.324-35.917-12.629 4.166-19.285 35.077-8.494 53.671 7.012 12.1 17.751 12.692 20.081 23.945 2.702 13.056-10.356 19.011-10.426 31.669-.13 22.737 41.725 54.408 66.813 41.334Z" fill="#BDD0FB"/><path d="M127.969 324.792a.775.775 0 0 0 .696-1.109c-25.142-51.81-32.515-111.912-32.582-112.512a.774.774 0 0 0-1.171-.649.774.774 0 0 0-.362.833c.072.602 7.475 60.963 32.729 113a.774.774 0 0 0 .69.437Z" fill="#91B3FA"/><path d="M76.387 226.735a.368.368 0 0 0 .292-.595c-7.936-10.188-16.733-25.491-13.565-40.55 1.885-8.971 7.191-13.648 7.24-13.705a.372.372 0 0 0-.067-.623.36.36 0 0 0-.29-.014.37.37 0 0 0-.126.078c-.225.197-5.55 4.89-7.486 14.101-1.78 8.466-.846 22.478 13.705 41.156a.387.387 0 0 0 .13.111c.052.026.109.04.167.041Z" fill="#DCE5FE"/><path d="M139.913 311.579a.372.372 0 0 0 .305-.163c12.197-17.798 16.355-31.547 12.36-40.877-3.55-8.29-12.515-9.826-12.606-9.847a.367.367 0 0 0-.422.304.366.366 0 0 0 .303.423c.088.015 8.666 1.502 12.05 9.42 3.879 9.076-.258 22.59-12.293 40.16a.372.372 0 0 0 .096.518c.061.04.133.062.207.062Z" fill="#F0F0F0"/><path d="M428.266 319.463c14.457 2.891 32.92-12.872 38.867-30.094 6.121-17.721-5.101-25.145-5.014-49.733.099-27.927 14.628-32.145 24.24-69.797 2.169-8.494 14.718-57.664-.835-66.869-14.383-8.533-54.776 15.931-61.856 47.227-5.047 22.313 10.558 31.684 4.598 57.664-5.231 22.805-18.975 23.136-24.242 45.138-6.41 26.797 5.259 62.668 24.242 66.464Z" fill="#91B3FA"/><path d="M429.316 326.23c-3.897-30.097 3.705-76.528 10.77-110.179 7.648-36.435 16.329-66.154 16.417-66.456l1.202.352c-.088.294-8.755 29.974-16.394 66.362-7.044 33.554-14.628 79.832-10.752 109.753l-1.243.168Z" fill="#7D97F4"/><path d="M444.916 316.101c-18.965-9.88-25.455-43.814-14.677-54.84 7.284-7.452 17.731.385 27.808-7.339 12.867-9.862 3.403-28.444 13.518-52.523 8.608-20.5 29.256-39.899 41.324-35.917 12.629 4.166 19.283 35.077 8.495 53.682-7.016 12.099-17.752 12.691-20.082 23.945-2.702 13.055 10.356 19.011 10.426 31.668.13 22.727-41.725 54.398-66.812 41.324Z" fill="#BDD0FB"/><path d="M455.15 324.792a.807.807 0 0 1-.338-.077.78.78 0 0 1-.357-1.035c25.142-51.809 32.514-111.912 32.581-112.512a.785.785 0 0 1 .268-.568.772.772 0 0 1 1.14.137.774.774 0 0 1 .126.615c-.073.603-7.476 60.963-32.729 113.001a.783.783 0 0 1-.691.439Z" fill="#91B3FA"/><path d="M506.733 226.735a.368.368 0 0 1-.293-.595c7.936-10.188 16.733-25.491 13.566-40.55-1.886-8.971-7.192-13.648-7.241-13.705a.373.373 0 0 1-.123-.403.364.364 0 0 1 .19-.22.361.361 0 0 1 .291-.014c.047.017.09.044.126.078.225.197 5.549 4.89 7.486 14.101 1.779 8.466.845 22.478-13.705 41.156a.38.38 0 0 1-.297.152Z" fill="#DCE5FE"/><path d="M443.214 311.579a.375.375 0 0 1-.173-.043.38.38 0 0 1-.132-.12c-12.197-17.798-16.355-31.547-12.36-40.877 3.55-8.29 12.516-9.826 12.606-9.847a.367.367 0 0 1 .274.065.367.367 0 0 1-.155.662c-.088.015-8.665 1.502-12.053 9.42-3.878 9.076.259 22.59 12.296 40.16a.372.372 0 0 1-.096.518.378.378 0 0 1-.207.062Z" fill="#F0F0F0"/><path d="M133.927 143.058V301.68c0 11.672 10.252 21.134 22.9 21.134h266.355c12.647 0 22.9-9.462 22.9-21.134V143.058H133.927Z" fill="url(#b)"/><path d="m368.205 95.828-67.702-40.965c-6.586-3.984-14.411-3.984-20.997 0L211.804 95.81l-78.2 47.32 78.2 47.176 78.2 47.186 78.201-47.238 78.2-47.124-78.2-47.302Z" fill="url(#c)"/><path d="M140.042 315.959a.539.539 0 0 1-.362-.137.53.53 0 0 1-.185-.378.532.532 0 0 1 .139-.398l97.534-109.734a.545.545 0 0 1 .758-.03.55.55 0 0 1 .062.756l-97.535 109.737a.541.541 0 0 1-.411.184Zm299.925 0a.55.55 0 0 1-.412-.184l-97.534-109.734a.549.549 0 1 1 .819-.727l97.53 109.735a.539.539 0 0 1 .139.397.535.535 0 0 1-.186.378.537.537 0 0 1-.356.135Z" style="mix-blend-mode:soft-light" fill="#fff"/><path d="M392.892 240.973s-3.217-3.856 1.156-6.232c4.372-2.377 11.24.23 12.109 5.285.869 5.056 5.213 2.053 7.108.947 1.896-1.107 7.186-2.607 8.534 3.157.532 2.286-.14 5.203.85 7.328 1.363 2.925 5.806 2.17 8.231 3.287 3.152 1.456 4.799 4.269 3.16 7.55-2.526 5.053-7.499 8.275-4.817 12.671 2.681 4.396-8.136 14.268-11.846 5.107-3.711-9.162-9.477-7.61-14.137-8.187-4.659-.576-7.028-4.608-5.764-8.714 1.265-4.106-.395-6.552-2.13-8.29-1.735-1.738-7.587-9.25-2.454-13.909Z" fill="url(#d)"/><path d="M386.125 290.121s-3.507.546-7.45 3.181a1.976 1.976 0 0 0-.702.816 1.976 1.976 0 0 0-.167 1.064c.473 3.739 2.415 15.846 8.818 27.668.335.626.435 1.35.284 2.043l-1.112 5.172-2.069 1.934h5.314l3.538-9.568-1.513-.478a2.862 2.862 0 0 1-1.999-2.682l-.178-10.268c.152-4.577-2.806-7.734-2.806-7.734l8.487-.411-8.445-10.737Z" fill="url(#e)"/><path d="M381.672 332.93c-.484.633 5.208 1.468 8.083.082 0 0 3.987-6.935 3.987-10.506 0 0-.318-.726-2.658-.561 0 0-1.339 8.21-2.751 9.131-1.412.92-3.954.093-3.954.093s-2.006.838-2.707 1.761Z" fill="url(#f)"/><path d="M393.502 301.424c-.047-.08-9.136-1.094-9.136-1.094s.298 2.764-.633 6.568-14.277 20.291-14.277 20.291l1.399 4.437c-4.326 1.508-8.582 1.748-12.771.776l8.673-5.205s8.117-27.668 13.089-32.597l9.113-3.152 4.543 9.976Z" fill="url(#g)"/><path d="M413.889 285.327s5.239 7.791 5.668 11.344c.429 3.553-1.435 4.999-6.93 5.237-5.495.238-20.17.232-20.17.232l-12.523-10.7s9.126-3.255 11.499-4.176c2.374-.92 22.456-1.937 22.456-1.937Z" fill="url(#h)"/><path d="M370.328 330.132s1.505 1.458.489 3.082c0 0-11.937 2.115-15.177 1.156 0 0 .673-1.536 4.321-3.284l-.258.207a.434.434 0 0 0-.134.49.435.435 0 0 0 .421.286c2.394-.132 7.372-.572 10.338-1.937Z" fill="url(#i)"/><path d="M399.723 284.296s-6.097-5.808-9.099-9.653a8.17 8.17 0 0 1-1.384-7.347c1.371-4.618 3.807-9.399 4.029-10.144.342-1.143 7.181-1.094 7.181-1.094s13.446 8.733 18.745 23.531l-5.948 1.849s-3.514-5.895-6.981-9.642c0 0 6.006 7.936 6.206 11.183l-12.749 1.317Z" fill="url(#j)"/><path d="M392.442 250.776c.072.235 1.856 6.154 1.996 6.275.14.122 3.915.326 5.689-.887l-3.015-6.312-4.67.924Z" fill="url(#k)"/><path d="M395.377 238.345s-3.222 1.361-5.413 6.018c-2.19 4.657-.555 6.806 1.5 7.1 2.056.295 5.128.259 8.381-2.756 3.253-3.015-.282-11.97-4.468-10.362Z" fill="url(#l)"/><path d="M397.655 246.222s2.433-6.814-3.62-6.894l-1.423.993s-2.216-3.778 1.423-5.58c3.638-1.802 9.063-.197 10.602 4.703 1.538 4.901.641 8.066-1.935 10.408-2.575 2.343-3.635-.312-3.635-.312s1.401-2.193.832-3.362c-.569-1.169-1.887.243-1.887.243l-.357-.199Z" fill="url(#m)"/><path d="M397.013 247.308s1.229-3.509 2.868-2.11c1.64 1.399-1.332 3.24-2.495 3.837l-.373-1.727Z" fill="url(#n)"/><path d="m387.299 284.727 4.481-4.318 6.206 2.62s6.172.954 9.702 0l3.532-.957 7.982-2.485 1.252 3.542a2.133 2.133 0 0 1-.776 2.452 14.23 14.23 0 0 1-2.014 1.254c-1.053.46-25.91-.318-25.91-.318l-4.455-1.79Z" fill="url(#o)"/><path d="m419.852 246.633-.213-.021c.184-1.696-.095-2.823-.861-3.452-1.512-1.249-4.654-.258-7.421.587-1.404.437-2.728.848-3.656.898a2.114 2.114 0 0 1-1.691-.562c-.755-.749-.701-1.967-.699-2.017h.215s-.052 1.174.634 1.857a1.926 1.926 0 0 0 1.528.499c.902-.049 2.216-.455 3.604-.887 2.822-.876 6.02-1.869 7.623-.551.823.688 1.13 1.88.937 3.649Zm6.596 25.53c-.499-2.051.848-3.786 2.41-5.79 1.122-1.445 2.394-3.082 3.074-5.047a2.881 2.881 0 0 0-.209-2.56c-1.451-2.369-6.271-3.059-6.32-3.065l.029-.212c.201.029 4.97.712 6.464 3.166a3.076 3.076 0 0 1 .23 2.74c-.693 1.999-1.975 3.652-3.103 5.107-1.525 1.963-2.844 3.659-2.368 5.609l-.207.052Z" fill="#BDD0FB" style="mix-blend-mode:soft-light"/><path d="M404.732 307.144h-2.361v25.527h2.361v-25.527Z" fill="url(#p)"/><path d="M413.888 333.162h-20.673a1.537 1.537 0 0 1 1.536-1.536h17.602a1.537 1.537 0 0 1 1.535 1.536Z" fill="url(#q)"/><path d="M414.419 301.424h-20.917a2.54 2.54 0 0 0-2.539 2.539v2.294a2.54 2.54 0 0 0 2.539 2.539h20.917a2.54 2.54 0 0 0 2.539-2.539v-2.294a2.54 2.54 0 0 0-2.539-2.539Z" fill="url(#r)"/><path d="M404.256 286.765h-.059l-25.995-.028a1.164 1.164 0 0 1 0-2.328l25.995.029a1.16 1.16 0 0 1 .831.321 1.16 1.16 0 0 1 .04 1.645 1.164 1.164 0 0 1-.814.361h.002Z" fill="url(#s)"/><path d="M354.834 263.162h21.648a4.136 4.136 0 0 1 3.734 2.366l10.007 21.222h-26.91a2.507 2.507 0 0 1-2.328-1.586l-7.757-19.636a1.726 1.726 0 0 1 .797-2.164c.249-.133.527-.202.809-.202Z" fill="url(#t)"/><path d="M440.59 287.714a.961.961 0 0 0-.228-.833 1.104 1.104 0 0 0-.827-.364H331.062a1.255 1.255 0 0 0-1.034.532 1.098 1.098 0 0 0-.08 1.11l1.176 2.387a1.66 1.66 0 0 0 1.495.894h106.174a1.226 1.226 0 0 0 1.223-.946l.574-2.78Z" fill="url(#u)"/><path d="M337.141 337.977a.908.908 0 0 1-.374-.08.983.983 0 0 1-.5-1.293l19.966-47.483a.933.933 0 0 1 .882-.594.947.947 0 0 1 .367.077.983.983 0 0 1 .499 1.28l-19.966 47.486a.949.949 0 0 1-.874.607Z" fill="url(#v)"/><path d="M359.633 337.977a.947.947 0 0 1-.877-.589l-19.962-47.486a.983.983 0 0 1 .496-1.28.948.948 0 0 1 1.047.203c.088.09.158.197.205.314l19.965 47.483a.984.984 0 0 1-.499 1.293.906.906 0 0 1-.375.062Z" fill="url(#w)"/><path d="M415.761 337.977a.93.93 0 0 1-.378-.08.982.982 0 0 1-.496-1.293l19.962-47.483a.95.95 0 0 1 .517-.522.932.932 0 0 1 .735.005.983.983 0 0 1 .499 1.28l-19.965 47.486a.951.951 0 0 1-.874.607Z" fill="url(#x)"/><path d="M438.25 337.977a.954.954 0 0 1-.874-.589l-19.966-47.486a.981.981 0 0 1 .5-1.28.939.939 0 0 1 1.251.517l19.963 47.483a.987.987 0 0 1-.497 1.293.918.918 0 0 1-.377.062Z" fill="url(#y)"/><mask id="z" style="mask-type:luminance" maskUnits="userSpaceOnUse" x="146" y="29" width="280" height="209"><path d="m146.884 150.888 143.317 86.508L425.341 156V29.98H158.138l-11.254 120.908Z" fill="#fff"/></mask><g mask="url(#z)"><path d="M387.102 66.3H168.6c-3.853 0-7.044 3.341-7.044 7.197v177.315h256.886V98.137L387.102 66.3Z" fill="#BDD0FB"/><path d="m418.326 98.137-28.672.259a2.533 2.533 0 0 1-1.895-.825c-.541-.538-.595-1.265-.595-2.025V66.518l31.162 31.619Z" fill="#91B3FA"/><path d="M346.675 149.709c0 6.666-1.064 12.764-3.193 18.294-2.129 5.531-5.138 9.87-9.027 13.02-3.889 3.149-8.403 4.723-13.542 4.722-3.424 0-6.455-.822-9.095-2.465a14.105 14.105 0 0 1-5.688-6.493h-1.112c-5 5.974-11.365 8.959-19.097 8.958-8.192 0-14.649-2.465-19.373-7.393-4.723-4.929-7.084-11.676-7.082-20.242 0-9.769 3.103-17.639 9.309-23.609 6.206-5.969 14.308-8.955 24.306-8.957 4.41.036 8.81.419 13.16 1.146 4.777.763 8.717 1.675 11.82 2.735l-1.596 33.957c0 6.434 1.759 9.651 5.278 9.651 2.96 0 5.32-2.164 7.082-6.491 1.762-4.327 2.641-9.986 2.638-16.978 0-7.452-1.552-14.038-4.655-19.756a31.59 31.59 0 0 0-13.089-13.089c-5.623-3.008-12.047-4.513-19.27-4.513-9.35 0-17.474 1.922-24.371 5.764-6.897 3.843-12.184 9.385-15.859 16.627-3.679 7.24-5.519 15.607-5.521 25.101 0 12.775 3.415 22.578 10.243 29.408 6.828 6.83 16.723 10.244 29.685 10.243 4.905 0 10.297-.544 16.177-1.632a107.141 107.141 0 0 0 17.361-4.758v13.333c-9.905 4.213-20.9 6.319-32.985 6.319-17.583 0-31.297-4.629-41.14-13.888s-14.762-22.128-14.755-38.606c0-11.435 2.511-21.816 7.533-31.144 5.021-9.328 12.176-16.642 21.462-21.943 9.282-5.301 19.964-7.95 32.046-7.95 10.183 0 19.279 2.083 27.288 6.248 8.01 4.165 14.19 10.091 18.541 17.778 4.349 7.69 6.523 16.558 6.521 26.603Zm-71.11 8.678c0 9.769 3.981 14.653 11.944 14.651 4.167 0 7.338-1.465 9.513-4.396 2.176-2.931 3.495-7.71 3.957-14.338l.905-15.347a38.062 38.062 0 0 0-7.988-.763c-5.784 0-10.286 1.806-13.506 5.417-3.22 3.612-4.827 8.537-4.82 14.776h-.005Z" fill="url(#A)"/></g><path d="M434.65 65.163c-.313-26.934 21.349-49.103 48.283-49.413A48.537 48.537 0 0 1 510.668 24l2.777-2.816a1.435 1.435 0 0 1 1.379-.38 1.427 1.427 0 0 1 1.018 1.006l4.856 17.656a1.427 1.427 0 0 1-1.737 1.76l-17.721-4.63a1.435 1.435 0 0 1-.657-2.392l3.129-3.176a38.978 38.978 0 0 0-20.676-5.616c-21.594.258-38.961 18.013-38.712 39.596.248 21.584 18.023 38.917 39.617 38.666a39.286 39.286 0 0 0 38.712-38.836c0-.745.587-1.58 1.41-1.59l6.826-.08c.44 0 .76.32.97.537l.057.057c.279.337.429.762.424 1.2a48.914 48.914 0 0 1-48.27 48.484c-26.941.31-49.11-21.348-49.42-48.282Zm85.043-25.326a.416.416 0 0 0-.013-.093l-4.859-17.656a.374.374 0 0 0-.265-.262.37.37 0 0 0-.358.102l-3.398 3.441-.365-.258a47.48 47.48 0 0 0-27.49-8.314c-26.352.305-47.542 21.98-47.237 48.355.305 26.376 21.979 47.543 48.355 47.238a47.851 47.851 0 0 0 47.24-47.434.867.867 0 0 0-.119-.45l-.057-.06a1.681 1.681 0 0 0-.243-.217l-6.788.078c-.145 0-.362.29-.364.543a40.34 40.34 0 0 1-39.77 39.881c-22.179.258-40.432-17.558-40.688-39.713-.256-22.156 17.583-40.409 39.757-40.665a40.055 40.055 0 0 1 21.806 6.134l.559.351-4.058 4.117a.384.384 0 0 0-.095.362.372.372 0 0 0 .258.259l17.737 4.639a.367.367 0 0 0 .429-.199.367.367 0 0 0 .036-.166l-.01-.013Z" fill="#7D97F4"/><path d="M468.574 74.208h-14.078v-2.963l5.056-5.11c1.496-1.533 2.474-2.595 2.935-3.188a7.07 7.07 0 0 0 .99-1.645c.2-.5.303-1.034.302-1.572 0-.807-.222-1.41-.667-1.81a2.585 2.585 0 0 0-1.784-.592 5.136 5.136 0 0 0-2.27.535c-.825.417-1.597.93-2.302 1.528l-2.314-2.738c.759-.68 1.586-1.28 2.467-1.792a8.956 8.956 0 0 1 2.133-.804 10.903 10.903 0 0 1 2.586-.285 7.638 7.638 0 0 1 3.333.69 5.316 5.316 0 0 1 2.247 1.927c.54.85.818 1.838.799 2.844a7.015 7.015 0 0 1-.488 2.61 10.204 10.204 0 0 1-1.516 2.5c-.689.853-1.896 2.07-3.62 3.648l-2.586 2.439v.191h8.774l.003 3.587Zm16.554-4.174h-2.423v4.174h-4.161v-4.174h-8.592v-2.96l8.828-13.002h3.925v12.67h2.423v3.292Zm-6.584-3.304v-3.416c0-.57.024-1.396.07-2.48.047-1.084.083-1.713.109-1.885h-.109a15.714 15.714 0 0 1-1.225 2.203l-3.693 5.578h4.848Zm18.538-12.658-7.499 20.136h-3.816l7.498-20.136h3.817Zm3.279 20.136 7.561-16.526h-9.93V54.1h14.447v2.664L504.824 74.2l-4.463.008Z" fill="#7D97F4"/><path d="m508.853 154.767.134 1.634a.284.284 0 0 0 .412.228.294.294 0 0 0 .14-.165.294.294 0 0 0 .012-.11l-.153-1.65a.283.283 0 0 0-.093-.192.29.29 0 0 0-.095-.054.286.286 0 0 0-.3.083.282.282 0 0 0-.067.202l.01.024Z" fill="url(#B)"/><path d="M509.132 160.236v1.639a.301.301 0 0 0 .089.221.3.3 0 0 0 .219.092.328.328 0 0 0 .12-.023.318.318 0 0 0 .171-.168.305.305 0 0 0 .024-.119v-1.655a.303.303 0 1 0-.605 0l-.018.013Z" fill="url(#C)"/><path d="m508.941 165.699-.148 1.632a.342.342 0 0 0 .678.06l.132-1.653a.33.33 0 0 0-.541-.277.334.334 0 0 0-.119.22l-.002.018Z" fill="url(#D)"/><path d="m508.292 171.127-.282 1.614a.366.366 0 0 0 .574.362.37.37 0 0 0 .15-.238l.258-1.637a.358.358 0 0 0-.296-.415.361.361 0 0 0-.415.296l.011.018Z" fill="url(#E)"/><path d="m507.203 176.487-.408 1.586a.389.389 0 0 0 .043.303.398.398 0 0 0 .401.193.404.404 0 0 0 .331-.297l.396-1.606a.388.388 0 0 0-.753-.191l-.01.012Z" fill="url(#F)"/><path d="m505.698 181.732-.517 1.551a.435.435 0 0 0 .009.334.43.43 0 0 0 .417.245.415.415 0 0 0 .376-.305l.517-1.575a.421.421 0 0 0-.06-.275.414.414 0 0 0-.716.017l-.026.008Z" fill="url(#G)"/><path d="m503.792 186.851-.646 1.505a.471.471 0 0 0-.037.173.468.468 0 0 0 .129.322.448.448 0 0 0 .641.008.474.474 0 0 0 .1-.146l.638-1.533a.445.445 0 0 0-.817-.347l-.008.018Z" fill="url(#H)"/><path d="m501.507 191.811-.758 1.453a.498.498 0 0 0-.053.18.493.493 0 0 0 .111.352.475.475 0 0 0 .326.17.492.492 0 0 0 .352-.111.475.475 0 0 0 .117-.146l.753-1.476a.481.481 0 0 0-.207-.637.474.474 0 0 0-.634.202l-.007.013Z" fill="url(#I)"/><path d="m498.856 196.584-.861 1.392a.516.516 0 0 0 .866.535l.861-1.42a.494.494 0 0 0 .05-.372.5.5 0 0 0-.903-.145l-.013.01Z" fill="url(#J)"/><path d="m495.862 201.146-.962 1.321a.535.535 0 0 0 .519.837.536.536 0 0 0 .35-.203l.964-1.353a.53.53 0 0 0-.12-.738.532.532 0 0 0-.738.12l-.013.016Z" fill="url(#K)"/><path d="m492.536 205.469-1.057 1.247a.556.556 0 0 0-.15.418.57.57 0 0 0 .622.529.55.55 0 0 0 .216-.067.553.553 0 0 0 .173-.146l1.063-1.277a.555.555 0 0 0-.473-.912.556.556 0 0 0-.378.195l-.016.013Z" fill="url(#L)"/><path d="m488.898 209.526-1.151 1.164a.595.595 0 0 0 .425 1.011.591.591 0 0 0 .418-.176l1.159-1.194a.583.583 0 0 0-.423-.995.58.58 0 0 0-.412.175l-.016.015Z" fill="url(#M)"/><path d="m484.96 213.294-1.236 1.068h-.013a.623.623 0 0 0 .814.941l1.247-1.101a.617.617 0 0 0 .058-.865.611.611 0 0 0-.865-.058l-.005.015Z" fill="url(#N)"/><path d="m480.742 216.738-1.316.965a.65.65 0 0 0-.137.913.65.65 0 0 0 .913.137l1.329-.996a.646.646 0 1 0-.776-1.034l-.013.015Z" fill="url(#O)"/><path d="m476.266 219.831-1.388.856a.668.668 0 0 0-.22.923.668.668 0 0 0 .923.22l1.412-.882a.666.666 0 0 0-.212-1.19.676.676 0 0 0-.489.057l-.026.016Z" fill="url(#P)"/><path d="m471.558 222.546-1.451.745h-.018a.678.678 0 0 0-.369.398.69.69 0 0 0 .206.758.698.698 0 0 0 .784.07l1.481-.758a.683.683 0 0 0-.618-1.215l-.015.002Z" fill="url(#Q)"/><path d="m466.637 224.842-1.513.605h-.018a.696.696 0 0 0-.442.364.703.703 0 0 0 .388.971.7.7 0 0 0 .571-.042l1.552-.628a.699.699 0 0 0-.517-1.293l-.021.023Z" fill="url(#R)"/><path d="m461.535 226.717-1.552.484h-.018a.718.718 0 0 0-.122 1.319.716.716 0 0 0 .546.051l1.588-.502a.708.708 0 0 0 .468-.892.71.71 0 0 0-.892-.468l-.018.008Z" fill="url(#S)"/><path d="m456.296 228.181-1.593.356h-.015a.736.736 0 0 0 .323 1.433l1.621-.378a.726.726 0 0 0 .432-1.133.73.73 0 0 0-.758-.289l-.01.011Z" fill="url(#T)"/><path d="m450.972 229.238-1.614.241h-.018a.75.75 0 1 0 .22 1.484l1.645-.259a.742.742 0 0 0 .625-.848.742.742 0 0 0-.848-.626l-.01.008Z" fill="url(#U)"/><path d="m445.562 229.898-1.629.121h-.015a.779.779 0 0 0-.797.501.79.79 0 0 0-.047.331.789.789 0 0 0 .319.569.773.773 0 0 0 .641.125l1.658-.135a.76.76 0 0 0 .435-1.337.763.763 0 0 0-.554-.181l-.011.006Z" fill="url(#V)"/><path d="M440.127 230.177h-1.647a.78.78 0 0 0-.776.776.777.777 0 0 0 .776.775l1.665-.023a.776.776 0 1 0-.018-1.551v.023Z" fill="url(#W)"/><path d="m434.681 230.097-1.629-.093h-.015a.797.797 0 1 0-.091 1.592l1.663.086a.792.792 0 0 0 .619-1.318.79.79 0 0 0-.536-.267h-.011Z" fill="url(#X)"/><path d="m429.251 229.673-1.624-.192a.813.813 0 0 0-.191 1.616l1.652.184a.81.81 0 0 0 .186-1.606l-.023-.002Z" fill="url(#Y)"/><path d="m423.859 228.925-1.608-.284h-.015a.825.825 0 0 0-.605.15.825.825 0 0 0-.33.528.825.825 0 0 0 .648.956l1.636.279a.826.826 0 0 0 .796-1.278.82.82 0 0 0-.511-.345l-.011-.006Z" fill="url(#Z)"/><path d="m418.514 227.873-1.59-.372a.834.834 0 0 0-.639.105.845.845 0 0 0 .254 1.542l1.619.369a.836.836 0 0 0 .979-.636.837.837 0 0 0-.602-1l-.021-.008Z" fill="url(#aa)"/><path d="m413.232 226.536-1.572-.458a.864.864 0 0 0-.964 1.235.861.861 0 0 0 .485.418l1.601.455a.87.87 0 0 0 .652-.074.868.868 0 0 0 .408-.513.852.852 0 0 0-.29-.907.857.857 0 0 0-.297-.153l-.023-.003Z" fill="url(#ab)"/><path d="m408.021 224.923-1.551-.533a.875.875 0 0 0-1.116.542.876.876 0 0 0 .542 1.115l1.575.533a.868.868 0 0 0 1.106-.543.87.87 0 0 0-.543-1.107l-.013-.007Z" fill="url(#ac)"/><path d="m402.901 223.056-1.517-.611a.896.896 0 0 0-1.161.497.889.889 0 0 0 .496 1.161l1.552.61a.888.888 0 0 0 1.123-1.176.888.888 0 0 0-.467-.476l-.026-.005Z" fill="url(#ad)"/><path d="m397.875 220.94-1.487-.68h-.013a.914.914 0 0 0-1.174.465.912.912 0 0 0 .419 1.19l1.515.683a.905.905 0 0 0 .747-1.645l-.007-.013Z" fill="url(#ae)"/><path d="m392.956 218.59-1.456-.75a.912.912 0 0 0-.718-.078.913.913 0 0 0-.556.462.916.916 0 0 0-.054.72.927.927 0 0 0 .48.541l1.485.755a.925.925 0 0 0 1.234-.403.921.921 0 0 0-.397-1.237l-.018-.01Z" fill="url(#af)"/><path d="m388.136 216.017-1.419-.812a.931.931 0 1 0-.923 1.619l1.44.819a.933.933 0 0 0 .706.088.932.932 0 0 0 .675-.781.941.941 0 0 0-.189-.686.945.945 0 0 0-.274-.237l-.016-.01Z" fill="url(#ag)"/><path d="m383.443 213.247-1.389-.866a.928.928 0 0 0-.707-.117.931.931 0 0 0-.583.417.942.942 0 0 0-.117.707.931.931 0 0 0 .417.584l1.409.876a.936.936 0 0 0 1.287-.301.941.941 0 0 0 .116-.706.94.94 0 0 0-.417-.581l-.016-.013Z" fill="url(#ah)"/><path d="m378.848 210.297-1.36-.915a.936.936 0 0 0-1.096-.07.945.945 0 0 0-.427.628.94.94 0 0 0 .471.993l1.378.926a.938.938 0 1 0 1.034-1.552v-.01Z" fill="url(#ai)"/><path d="m374.356 207.186-1.326-.962a.95.95 0 0 0-1.299.226.945.945 0 0 0 .187 1.305l1.342.97a.927.927 0 0 0 .335.153.932.932 0 0 0 .714-.114.935.935 0 0 0 .437-.954.952.952 0 0 0-.379-.616l-.011-.008Z" fill="url(#aj)"/><path d="m369.968 203.928-1.293-1.003a.955.955 0 0 0-1.527.872.955.955 0 0 0 .361.633l1.311 1.013a.956.956 0 0 0 .336.186.947.947 0 0 0 1.036-.327.956.956 0 0 0 .054-1.086.946.946 0 0 0-.265-.277l-.013-.011Z" fill="url(#ak)"/><path d="m365.679 200.536-1.268-1.035a.957.957 0 1 0-1.212 1.479l1.293 1.05a.954.954 0 0 0 1.33-.148.96.96 0 0 0-.12-1.334l-.023-.012Z" fill="url(#al)"/><path d="m361.482 197.029-1.244-1.073a.982.982 0 0 0-.327-.185.975.975 0 0 0-1.031.286.962.962 0 0 0 .101 1.357l1.257 1.081a.958.958 0 1 0 1.251-1.455l-.007-.011Z" fill="url(#am)"/><path d="m357.365 193.417-1.218-1.102a.97.97 0 0 0-1.599.373.958.958 0 0 0-.048.387.959.959 0 0 0 .354.675l1.218 1.097a.97.97 0 0 0 1.328-.104.964.964 0 0 0-.035-1.331v.005Z" fill="url(#an)"/><path d="m353.336 189.716-1.197-1.127a.955.955 0 0 0-.322-.201.98.98 0 0 0-1.053.242.984.984 0 0 0-.265.697.967.967 0 0 0 .306.679l1.205 1.13a.96.96 0 0 0 .705.294.98.98 0 0 0 .699-.306.963.963 0 0 0 .264-.717.97.97 0 0 0-.336-.685l-.006-.006Z" fill="url(#ao)"/><path d="m349.372 185.936-1.176-1.148a.981.981 0 0 0-1.384.018.975.975 0 0 0 .018 1.383l1.187 1.154a.98.98 0 0 0 1.351-.05.98.98 0 0 0 .009-1.352l-.005-.005Z" fill="url(#ap)"/><path d="m345.47 182.088-1.161-1.168a.982.982 0 0 0-1.369.019.986.986 0 0 0-.027 1.369l1.169 1.172a.984.984 0 0 0 1.703-.687.976.976 0 0 0-.315-.702v-.003Z" fill="url(#aq)"/><path d="m341.617 178.181-1.145-1.182a.992.992 0 1 0-1.42 1.379l1.154 1.184a.988.988 0 1 0 1.414-1.378l-.003-.003Z" fill="url(#ar)"/><path d="m337.811 174.233-1.138-1.195a.979.979 0 0 0-.694-.31.98.98 0 0 0-.71.271 1.005 1.005 0 0 0-.31.694.987.987 0 0 0 .272.71l1.142 1.195a.998.998 0 0 0 .688.28.994.994 0 0 0 .748-1.651l.002.006Z" fill="url(#as)"/><path d="m334.036 170.245-1.127-1.202a1.01 1.01 0 0 0-.696-.317.992.992 0 0 0-.716.268.99.99 0 0 0-.317.695.989.989 0 0 0 .268.717l1.132 1.202a.999.999 0 0 0 1.453-1.368l.003.005Z" fill="url(#at)"/><path d="m330.284 166.232-1.12-1.208a1.005 1.005 0 1 0-1.474 1.366l1.125 1.205a.994.994 0 0 0 .697.318.994.994 0 0 0 .947-.585.994.994 0 0 0-.178-1.099l.003.003Z" fill="url(#au)"/><path d="m326.547 162.201-1.119-1.21a1.012 1.012 0 0 0-1.485 1.37l1.125 1.21a1.008 1.008 0 0 0 1.477-1.373l.002.003Z" fill="url(#av)"/><path d="m322.813 158.167-1.122-1.21a1.017 1.017 0 0 0-1.489 1.381l1.122 1.205a1.012 1.012 0 0 0 1.756-.651 1.018 1.018 0 0 0-.269-.728l.002.003Z" fill="url(#aw)"/><path d="m319.069 154.138-1.125-1.205a1.02 1.02 0 0 0-1.492 1.391l1.127 1.203a1.03 1.03 0 0 0 .717.35 1.017 1.017 0 0 0 .985-.606 1.023 1.023 0 0 0 .011-.797 1.004 1.004 0 0 0-.226-.338l.003.002Z" fill="url(#ax)"/><path d="m315.307 150.125-1.133-1.2a1.037 1.037 0 0 0-1.367.047 1.036 1.036 0 0 0-.125 1.362l1.133 1.195a1.026 1.026 0 0 0 .742.435 1.034 1.034 0 0 0 .745-1.842l.005.003Z" fill="url(#ay)"/><path d="m311.516 146.135-1.146-1.189a1.033 1.033 0 0 0-1.705.715c-.018.256.061.51.221.712l1.143 1.184a1.036 1.036 0 0 0 1.384-.046 1.037 1.037 0 0 0 .098-1.381l.005.005Z" fill="url(#az)"/><path d="m307.686 142.179-1.158-1.177a1.04 1.04 0 0 0-1.694.322 1.036 1.036 0 0 0 .215 1.131l1.156 1.172a1.035 1.035 0 0 0 1.474-1.453l.007.005Z" fill="url(#aA)"/><path d="m303.805 138.269-1.177-1.164a1.039 1.039 0 0 0-1.472.009 1.04 1.04 0 0 0 .009 1.473l1.171 1.153a1.037 1.037 0 0 0 1.47-.009 1.037 1.037 0 0 0-.009-1.47l.008.008Z" fill="url(#aB)"/><path d="m299.864 134.414-1.194-1.143a1.047 1.047 0 0 0-1.449 1.51l1.187 1.135a1.037 1.037 0 0 0 .746.289 1.04 1.04 0 0 0 1.02-1.068 1.035 1.035 0 0 0-.323-.731l.013.008Z" fill="url(#aC)"/><path d="m295.854 130.63-1.221-1.122a1.052 1.052 0 0 0-.751-.274 1.039 1.039 0 0 0-.724.338 1.038 1.038 0 0 0-.177 1.146c.057.124.139.236.24.329l1.21 1.114a1.041 1.041 0 0 0 1.476-.061 1.046 1.046 0 0 0-.061-1.475l.008.005Z" fill="url(#aD)"/><path d="m291.76 126.928-1.244-1.094a1.022 1.022 0 0 0-.749-.258 1.04 1.04 0 0 0-.713.347c-.09.102-.159.22-.204.349a1.05 1.05 0 0 0 .049.791c.059.123.142.232.244.322l1.231 1.086a1.024 1.024 0 0 0 .75.259 1.04 1.04 0 0 0 .918-.696 1.027 1.027 0 0 0-.292-1.114l.01.008Z" fill="url(#aE)"/><path d="m287.582 123.318-1.27-1.063a1.034 1.034 0 0 0-1.458.129 1.027 1.027 0 0 0-.124 1.144c.063.12.149.227.253.315l1.257 1.052a1.032 1.032 0 0 0 1.459-.128 1.034 1.034 0 0 0-.128-1.46l.011.011Z" fill="url(#aF)"/><path d="m283.315 119.814-1.293-1.034a1.034 1.034 0 0 0-1.28 1.618l1.293 1.019a1.038 1.038 0 0 0 1.145.099 1.033 1.033 0 0 0 .408-1.406 1.045 1.045 0 0 0-.26-.309l-.013.013Z" fill="url(#aG)"/><path d="m278.947 116.432-1.329-.988a1.026 1.026 0 0 0-1.537.138 1.042 1.042 0 0 0-.183.826 1.03 1.03 0 0 0 .495.686l1.313.98a1.028 1.028 0 0 0 .798.274 1.032 1.032 0 0 0 .922-1.234 1.03 1.03 0 0 0-.489-.687l.01.005Z" fill="url(#aH)"/><path d="m274.477 113.184-1.363-.944a1.048 1.048 0 0 0-.817-.276 1.039 1.039 0 0 0-.911.847 1.041 1.041 0 0 0 .216.835c.094.115.212.209.346.275l1.342.933a1.034 1.034 0 1 0 1.168-1.68l.019.01Z" fill="url(#aI)"/><path d="m269.897 110.086-1.396-.9a1.024 1.024 0 0 0-1.41.305 1.024 1.024 0 0 0 .305 1.41l1.376.889a1.02 1.02 0 0 0 1.164.016 1.03 1.03 0 0 0 .288-.293 1.03 1.03 0 0 0-.039-1.164 1.024 1.024 0 0 0-.306-.273l.018.01Z" fill="url(#aJ)"/><path d="m265.204 107.151-1.43-.845a1.015 1.015 0 0 0-1.035 1.748l1.407.835a1.017 1.017 0 0 0 1.034-1.748l.024.01Z" fill="url(#aK)"/><path d="m260.397 104.395-1.459-.792a1.013 1.013 0 0 0-.967 1.777l1.438.776a1.013 1.013 0 0 0 .97-1.777l.018.016Z" fill="url(#aL)"/><path d="m255.512 101.817-1.484-.74a1.01 1.01 0 0 0-.898 1.81l1.467.732a1.012 1.012 0 0 0 1.408-1.227 1.01 1.01 0 0 0-.509-.583l.016.008Z" fill="url(#aM)"/><path d="m250.529 99.43-1.51-.698a1.002 1.002 0 1 0-.827 1.828l1.489.677a.99.99 0 0 0 .768.027 1.004 1.004 0 0 0 .065-1.855l.015.02Z" fill="url(#aN)"/><path d="m245.464 97.198-1.536-.628a1.005 1.005 0 0 0-1.088.22.995.995 0 0 0 .005 1.413.999.999 0 0 0 .325.216l1.515.623a1.003 1.003 0 0 0 .776-1.851l.003.007Z" fill="url(#aO)"/><path d="m240.323 95.163-1.552-.574a.99.99 0 0 0-1.093.245.99.99 0 0 0-.268.725.995.995 0 0 0 .671.897l1.536.57a.998.998 0 0 0 .693-1.87l.013.007Z" fill="url(#aP)"/><path d="m235.11 93.312-1.575-.517a.99.99 0 1 0-.62 1.882l1.551.517a.99.99 0 0 0 1.1-.268.988.988 0 0 0 .134-1.124.988.988 0 0 0-.608-.49h.018Z" fill="url(#aQ)"/><path d="m229.837 91.644-1.595-.463a.988.988 0 1 0-.551 1.895l1.575.46a.987.987 0 0 0 1.227-.67.987.987 0 0 0-.671-1.227l.015.005Z" fill="url(#aR)"/><path d="m224.505 90.165-1.603-.409a.982.982 0 1 0-.481 1.906l1.588.403a.984.984 0 0 0 .486-1.908l.01.008Z" fill="url(#aS)"/><path d="m219.127 88.872-1.621-.352a.98.98 0 0 0-.414 1.916l1.601.35a.978.978 0 0 0 1.166-.75.977.977 0 0 0-.399-1.014.981.981 0 0 0-.351-.153l.018.003Z" fill="url(#aT)"/><path d="m213.707 87.77-1.632-.294a.977.977 0 0 0-.346 1.92l1.611.293a.976.976 0 0 0 .946-1.506.977.977 0 0 0-.597-.415l.018.002Z" fill="url(#aU)"/><path d="m208.251 86.86-1.642-.238a.974.974 0 0 0-1.072.828.97.97 0 0 0 .795 1.096l1.622.235a.97.97 0 0 0 1.079-.825.972.972 0 0 0-.8-1.098l.018.002Z" fill="url(#aV)"/><path d="m202.769 86.141-1.65-.178a.97.97 0 0 0-1.065.858.956.956 0 0 0 .209.71.963.963 0 0 0 .65.356l1.629.178a.965.965 0 0 0 1.066-.857.97.97 0 0 0-.857-1.067h.018Z" fill="url(#aW)"/><path d="m197.264 85.617-1.655-.12a.963.963 0 1 0-.14 1.922l1.635.119a.961.961 0 0 0 .932-.528.977.977 0 0 0 .055-.737.966.966 0 0 0-.845-.66l.018.004Z" fill="url(#aX)"/><path d="m191.743 85.288-1.66-.06a.958.958 0 1 0-.07 1.917l1.637.062a.96.96 0 1 0 .072-1.919h.021Z" fill="url(#aY)"/><path d="M186.215 85.156h-1.66a.955.955 0 0 0 0 1.908h1.639a.958.958 0 0 0 .677-1.633.958.958 0 0 0-.677-.28l.021.005Z" fill="url(#aZ)"/><path d="m180.686 85.223-1.66.06a.95.95 0 0 0-.59 1.634c.177.17.414.266.66.266l1.637-.056a.947.947 0 0 0 .663-.302.96.96 0 0 0 .256-.682.943.943 0 0 0-.302-.664.946.946 0 0 0-.682-.256h.018Z" fill="url(#ba)"/><path d="m175.163 85.49-1.655.121a.95.95 0 0 0-.843.644.946.946 0 0 0 .98 1.244l1.634-.116a.951.951 0 0 0 .86-1.013.945.945 0 0 0-.994-.88h.018Z" fill="url(#bb)"/><path d="m169.652 85.96-1.649.179a.943.943 0 1 0 .207 1.874l1.629-.175a.945.945 0 0 0 .165-1.845.945.945 0 0 0-.367-.033h.015Z" fill="url(#bc)"/><path d="m164.163 86.633-1.64.24a.94.94 0 1 0 .259 1.857l1.621-.236a.94.94 0 0 0-.258-1.861h.018Z" fill="url(#bd)"/><path d="m158.702 87.512-1.632.308a.938.938 0 0 0-.713 1.086.935.935 0 0 0 1.059.752l1.617-.313a.935.935 0 0 0 .748-1.092.934.934 0 0 0-1.092-.749l.013.008Z" fill="url(#be)"/><path d="m153.279 88.621-1.619.38a.922.922 0 0 0-.609.407.935.935 0 0 0-.127.722.931.931 0 0 0 1.163.681l1.593-.372a.932.932 0 0 0 .251-1.671.931.931 0 0 0-.675-.14l.023-.007Z" fill="url(#bf)"/><path d="m147.913 89.974-1.6.455a.928.928 0 1 0 .517 1.784l1.575-.445h.013a.93.93 0 0 0-.517-1.787l.012-.007Z" fill="url(#bg)"/><path d="m142.607 91.587-1.574.538a.91.91 0 0 0-.618.808.925.925 0 0 0 .227.663.917.917 0 0 0 .983.261l1.551-.517a.913.913 0 0 0 .563-.457.922.922 0 0 0-1.15-1.285l.018-.01Z" fill="url(#bh)"/><path d="m137.394 93.483-1.551.623a.902.902 0 0 0-.014 1.67c.22.093.469.095.691.005l1.518-.605a.906.906 0 0 0 .495-1.174.905.905 0 0 0-1.167-.512l.028-.007Z" fill="url(#bi)"/><path d="m132.293 95.66-1.505.714a.892.892 0 0 0-.418 1.193.893.893 0 0 0 1.193.417l1.479-.693h.016a.893.893 0 0 0 .429-1.192.894.894 0 0 0-1.192-.429l-.002-.01Z" fill="url(#bj)"/><path d="m127.33 98.15-1.455.81a.892.892 0 0 0-.424.53.89.89 0 0 0 .299.937.906.906 0 0 0 .651.189.882.882 0 0 0 .329-.105l1.428-.776h.015a.887.887 0 0 0 .454-.872.87.87 0 0 0-.325-.594.892.892 0 0 0-.65-.19.876.876 0 0 0-.329.105l.007-.034Z" fill="url(#bk)"/><path d="m122.541 100.966-1.396.913a.873.873 0 0 0 .281 1.604.878.878 0 0 0 .668-.151h.013l1.368-.884h.015a.872.872 0 0 0-.943-1.464l-.006-.018Z" fill="url(#bl)"/><path d="m117.967 104.126-1.327 1.013a.862.862 0 0 0-.367.922.863.863 0 0 0 .416.545.854.854 0 0 0 .986-.109l1.293-.983h.018a.857.857 0 0 0-.412-1.505.859.859 0 0 0-.623.137l.016-.02Z" fill="url(#bm)"/><path d="m113.649 107.632-1.239 1.122a.85.85 0 0 0-.276.584.838.838 0 0 0 .218.607.835.835 0 0 0 .583.276.848.848 0 0 0 .608-.218l1.21-1.088h.015a.849.849 0 0 0-1.13-1.262l.011-.021Z" fill="url(#bn)"/><path d="m109.643 111.49-1.137 1.226a.822.822 0 0 0-.222.596.836.836 0 0 0 .542.748.83.83 0 0 0 .897-.214h.013l1.112-1.187.016-.016a.824.824 0 0 0 .235-.601.83.83 0 0 0-.543-.763.836.836 0 0 0-.91.222l-.003-.011Z" fill="url(#bo)"/><path d="m105.977 115.69-1.035 1.329a.805.805 0 0 0-.175.29.821.821 0 0 0 .579 1.066.825.825 0 0 0 .654-.117.829.829 0 0 0 .235-.244l.013-.015.993-1.293.016-.018a.822.822 0 1 0-1.293-1.009l.013.011Z" fill="url(#bp)"/><path d="m102.739 120.233-.879 1.422a.806.806 0 1 0 1.373.848v-.018l.858-1.376v-.02a.79.79 0 0 0 .112-.296.796.796 0 0 0-.139-.603.793.793 0 0 0-.525-.329.801.801 0 0 0-.604.139.82.82 0 0 0-.217.23l.021.003Z" fill="url(#bq)"/><path d="m99.975 125.071-.734 1.51a.797.797 0 0 0 .364 1.063.801.801 0 0 0 .875-.118.799.799 0 0 0 .188-.247v-.018l.721-1.456v-.02a.796.796 0 0 0-.088-.91.8.8 0 0 0-1.157-.063.804.804 0 0 0-.185.264l.016-.005Z" fill="url(#br)"/><path d="m97.692 130.149-.592 1.565a.781.781 0 1 0 1.463.553v-.018l.582-1.518v-.02a.792.792 0 0 0-.193-.853.79.79 0 0 0-.861-.148.785.785 0 0 0-.415.437l.016.002Z" fill="url(#bs)"/><path d="m95.89 135.417-.445 1.606a.77.77 0 0 0 .221.892.775.775 0 0 0 1.263-.481v-.016l.442-1.551v-.021a.772.772 0 0 0-.238-.865.772.772 0 0 0-1.126.155.776.776 0 0 0-.125.291l.007-.01Z" fill="url(#bt)"/><path d="m94.568 140.816-.303 1.642a.76.76 0 0 0 .903.895.75.75 0 0 0 .481-.338.755.755 0 0 0 .106-.28v-.018l.305-1.601v-.018a.764.764 0 1 0-1.497-.285l.005.003Z" fill="url(#bu)"/><path d="m93.72 146.311-.163 1.66a.747.747 0 0 0 1.487.145v-.016l.168-1.621v-.018a.75.75 0 1 0-1.492-.153v.003Z" fill="url(#bv)"/><path d="m93.353 151.855-.021 1.668a.73.73 0 0 0 .432.723.747.747 0 0 0 .827-.159.74.74 0 0 0 .207-.544v-.015l.028-1.632v-.018a.742.742 0 0 0-.726-.71.738.738 0 0 0-.75.684l.003.003Z" fill="url(#bw)"/><path d="m93.433 157.412.116 1.662a.725.725 0 0 0 .772.669.723.723 0 0 0 .669-.772v-.015l-.11-1.627v-.018a.727.727 0 0 0-1.447.096v.005Z" fill="url(#bx)"/><path d="m93.986 162.938.259 1.647a.709.709 0 1 0 1.401-.22l-.243-1.613v-.019a.712.712 0 0 0-.813-.598.714.714 0 0 0-.599.813l-.005-.01Z" fill="url(#by)"/><path d="m95.005 168.399.398 1.619a.71.71 0 0 0 .309.454.706.706 0 0 0 .542.09.686.686 0 0 0 .44-.33.697.697 0 0 0 .064-.545v-.016l-.38-1.585v-.018a.702.702 0 0 0-1.363.328l-.01.003Z" fill="url(#bz)"/><path d="m96.492 173.752.535 1.58a.687.687 0 0 0 1.293-.443v-.015l-.517-1.552v-.015a.695.695 0 0 0-.342-.421.69.69 0 0 0-.967.858l-.002.008Z" fill="url(#bA)"/><path d="m98.441 178.952.678 1.523a.678.678 0 0 0 .874.306.678.678 0 0 0 .357-.854l-.654-1.492v-.016a.675.675 0 0 0-.64-.444.672.672 0 0 0-.492.216.674.674 0 0 0-.107.771l-.016-.01Z" fill="url(#bB)"/><path d="m100.851 183.953.815 1.453a.664.664 0 0 0 .883.224.664.664 0 0 0 .27-.871v-.015l-.791-1.422v-.018a.668.668 0 0 0-.91-.269.67.67 0 0 0-.336.667c.012.087.04.172.085.248l-.016.003Z" fill="url(#bC)"/><path d="m103.748 188.7.956 1.368a.643.643 0 0 0 1.053-.732v-.015l-.926-1.342v-.016a.648.648 0 0 0-.889-.153.647.647 0 0 0-.176.885l-.018.005Z" fill="url(#bD)"/><path d="m107.094 193.14 1.086 1.262a.616.616 0 0 0 .872.069.62.62 0 0 0 .069-.873h-.013l-1.053-1.241-.012-.016a.625.625 0 0 0-.955.809l.006-.01Z" fill="url(#bE)"/><path d="m110.869 197.215 1.213 1.146a.598.598 0 0 0 .825-.864h-.016l-1.179-1.143-.016-.013a.605.605 0 0 0-.852.017.607.607 0 0 0-.168.43c.004.159.07.311.185.422l.008.005Z" fill="url(#bF)"/><path d="m115.04 200.885 1.321 1.016a.578.578 0 0 0 .924-.525.574.574 0 0 0-.218-.383h-.015l-1.293-1.006-.016-.013a.586.586 0 0 0-.817.101.584.584 0 0 0 .101.817l.013-.007Z" fill="url(#bG)"/><path d="m119.55 204.12 1.409.884a.557.557 0 0 0 .764-.172.552.552 0 0 0-.172-.764l-1.376-.879a.565.565 0 0 0-.887.363.566.566 0 0 0 .285.58l-.023-.012Z" fill="url(#bH)"/><path d="m124.344 206.91 1.484.747a.53.53 0 0 0 .721-.636.529.529 0 0 0-.238-.31h-.013l-1.453-.745a.528.528 0 0 0-.41-.035.536.536 0 0 0-.373.468.548.548 0 0 0 .125.393.561.561 0 0 0 .164.131l-.007-.013Z" fill="url(#bI)"/><path d="m129.368 209.247 1.551.61a.52.52 0 0 0 .591-.312.522.522 0 0 0-.21-.634h-.013l-1.521-.618h-.013a.519.519 0 0 0-.713.483.52.52 0 0 0 .323.476l.005-.005Z" fill="url(#bJ)"/><path d="m134.576 211.137 1.593.476a.487.487 0 0 0 .571-.699.49.49 0 0 0-.29-.237l-1.567-.478a.508.508 0 0 0-.2-.041.51.51 0 0 0-.364.164.504.504 0 0 0-.126.379.493.493 0 0 0 .378.436h.005Z" fill="url(#bK)"/><path d="m139.926 212.552 1.624.339a.47.47 0 0 0 .196-.916l-1.6-.346a.478.478 0 0 0-.539.369.477.477 0 0 0 .337.559l-.018-.005Z" fill="url(#bL)"/><path d="m145.374 213.519 1.647.199a.445.445 0 0 0 .112-.884l-1.624-.212a.45.45 0 0 0-.46.219.464.464 0 0 0-.045.349.445.445 0 0 0 .388.329h-.018Z" fill="url(#bM)"/><path d="m150.882 214.026 1.657.062a.433.433 0 0 0 .306-.112.429.429 0 0 0 .111-.458.418.418 0 0 0-.219-.239.414.414 0 0 0-.161-.039l-1.637-.075a.433.433 0 0 0-.478.41.428.428 0 0 0 .267.418.422.422 0 0 0 .172.033h-.018Z" fill="url(#bN)"/><path d="m156.41 214.067 1.658-.077a.399.399 0 0 0 .387-.258.41.41 0 0 0-.013-.322.426.426 0 0 0-.101-.13.394.394 0 0 0-.307-.095l-1.637.065a.42.42 0 0 0-.284.131.396.396 0 0 0-.083.136.399.399 0 0 0 .011.312.433.433 0 0 0 .094.13.422.422 0 0 0 .294.108h-.019Z" fill="url(#bO)"/><path d="m161.923 213.641 1.648-.22a.38.38 0 0 0 .328-.427.382.382 0 0 0-.145-.253.385.385 0 0 0-.282-.075l-1.629.207a.391.391 0 1 0 .099.775l-.019-.007Z" fill="url(#bP)"/><path d="m167.382 212.738 1.619-.365a.361.361 0 0 0 .274-.429.362.362 0 0 0-.429-.274l-1.601.349a.374.374 0 0 0-.23.16.368.368 0 0 0-.049.275c.01.047.029.091.057.13a.356.356 0 0 0 .235.151.357.357 0 0 0 .142-.002l-.018.005Z" fill="url(#bQ)"/><path d="m172.737 211.352 1.575-.517a.34.34 0 0 0-.204-.644l-1.552.491a.346.346 0 0 0-.043.623.342.342 0 0 0 .25.037l-.026.01Z" fill="url(#bR)"/><path d="m177.927 209.48 1.523-.657a.319.319 0 1 0-.258-.582l-1.511.639a.318.318 0 0 0-.17.422.324.324 0 0 0 .424.173l-.008.005Z" fill="url(#bS)"/><path d="m182.923 207.117 1.448-.802a.295.295 0 0 0-.282-.517l-1.44.775a.32.32 0 0 0-.102.072.307.307 0 0 0 .037.445.291.291 0 0 0 .112.054.305.305 0 0 0 .24-.04l-.013.013Z" fill="url(#bT)"/><path d="m187.655 204.27 1.068-.737a.276.276 0 0 0 .071-.382.27.27 0 0 0-.176-.114.27.27 0 0 0-.205.043l-1.061.721a.282.282 0 0 0 .003.465.287.287 0 0 0 .21.041.279.279 0 0 0 .1-.043l-.01.006Z" fill="url(#bU)"/><path d="M120.426 95.929a1.693 1.693 0 0 1-1.59-1.123l-2.353-6.648a34.213 34.213 0 0 1-9.229-3.726l-6.317 3.144a1.684 1.684 0 0 1-1.934-.31l-6.527-6.42a1.689 1.689 0 0 1-.341-1.927l3.04-6.382a34.241 34.241 0 0 1-3.878-9.166l-6.687-2.245a1.683 1.683 0 0 1-1.148-1.582l-.075-9.16a1.685 1.685 0 0 1 1.122-1.6l6.648-2.353a34.205 34.205 0 0 1 3.74-9.231l-3.145-6.318a1.683 1.683 0 0 1 .308-1.931l6.423-6.53a1.683 1.683 0 0 1 1.926-.338l6.369 3.038a34.285 34.285 0 0 1 9.167-3.879l2.231-6.697a1.692 1.692 0 0 1 1.583-1.148l9.159-.075h.013a1.687 1.687 0 0 1 1.588 1.125l2.353 6.645a34.21 34.21 0 0 1 9.228 3.74l6.331-3.142a1.689 1.689 0 0 1 1.931.305l6.529 6.423a1.68 1.68 0 0 1 .339 1.927l-3.038 6.368a34.314 34.314 0 0 1 3.878 9.167l6.685 2.245a1.69 1.69 0 0 1 1.151 1.582l.075 9.16a1.687 1.687 0 0 1-1.125 1.603l-6.646 2.352a34.257 34.257 0 0 1-3.739 9.23l3.142 6.316a1.687 1.687 0 0 1-.308 1.932l-6.418 6.53a1.681 1.681 0 0 1-1.926.338l-6.372-3.038a34.22 34.22 0 0 1-9.164 3.878l-2.244 6.687a1.693 1.693 0 0 1-1.583 1.148l-9.159.075-.013.01Zm-13.074-13.92.499.303a32.183 32.183 0 0 0 9.669 3.93l.568.127 2.641 7.455 8.533-.07 2.516-7.499.566-.137a32.146 32.146 0 0 0 9.622-4.085l.494-.313 7.142 3.408 5.991-6.093-3.542-7.082.305-.5a32.195 32.195 0 0 0 3.915-9.668l.129-.568 7.463-2.643-.07-8.533-7.499-2.516-.14-.57a32.124 32.124 0 0 0-4.072-9.6l-.308-.502 3.406-7.142-6.09-5.991-7.083 3.524-.499-.305a32.173 32.173 0 0 0-9.668-3.915l-.572-.13-2.637-7.454-8.533.072-2.516 7.5-.569.139a32.13 32.13 0 0 0-9.604 4.072l-.504.321-7.14-3.418-5.991 6.09 3.522 7.082-.303.499a32.174 32.174 0 0 0-3.917 9.67l-.13.57-7.452 2.637.07 8.534 7.499 2.516.137.568a32.2 32.2 0 0 0 4.075 9.604l.31.494-3.405 7.14 6.092 5.99 7.08-3.51Zm17.196-4.08a23.156 23.156 0 0 1-.184-46.31c1.65-.014 3.297.147 4.913.479a1.061 1.061 0 0 1 .706.443 1.056 1.056 0 0 1-.003 1.207 1.064 1.064 0 0 1-.707.44 1.06 1.06 0 0 1-.425-.022 21.035 21.035 0 1 0 13.677 9.669 1.042 1.042 0 0 1-.142-.389 1.045 1.045 0 0 1 .191-.787 1.058 1.058 0 0 1 1.481-.23c.112.082.207.185.28.304a23.168 23.168 0 0 1 3.372 11.59 23.165 23.165 0 0 1-11.335 20.365 23.157 23.157 0 0 1-11.628 3.24h-.196Z" fill="#7D97F4"/><path d="M124.664 63.818a9.187 9.187 0 0 1-9.104-8.027 9.194 9.194 0 0 1 6.798-10.056 9.189 9.189 0 0 1 9.212 14.97 9.199 9.199 0 0 1-6.906 3.113Zm-1.774-16.032a7.076 7.076 0 0 0-1.787 12.95 7.074 7.074 0 0 0 10.421-7.892 7.028 7.028 0 0 0-3.261-4.33 7.035 7.035 0 0 0-5.373-.728ZM84.713 130.32a1.089 1.089 0 0 1-.881-.447l-1.922-2.607a16.683 16.683 0 0 1-4.548-.411l-2.356 2.224a1.094 1.094 0 0 1-1.262.173l-3.9-2.043a1.09 1.09 0 0 1-.573-1.132l.483-3.207a16.808 16.808 0 0 1-2.927-3.503l-3.237-.093a1.102 1.102 0 0 1-1.014-.776l-1.314-4.205a1.092 1.092 0 0 1 .399-1.207l2.606-1.922a16.726 16.726 0 0 1 .411-4.548l-2.223-2.358a1.096 1.096 0 0 1-.176-1.257l2.045-3.905a1.099 1.099 0 0 1 1.135-.574l3.204.486a16.74 16.74 0 0 1 3.504-2.927l.093-3.237a1.096 1.096 0 0 1 .776-1.014l4.204-1.313a1.094 1.094 0 0 1 1.208.395l1.921 2.607a16.83 16.83 0 0 1 4.549.41l2.355-2.223a1.099 1.099 0 0 1 1.26-.173l3.901 2.043a1.1 1.1 0 0 1 .577 1.135l-.486 3.204a16.821 16.821 0 0 1 2.927 3.503l3.238.096a1.096 1.096 0 0 1 1.013.776l1.314 4.202a1.096 1.096 0 0 1-.396 1.21l-2.614 1.921a16.704 16.704 0 0 1-.411 4.546l2.224 2.358a1.1 1.1 0 0 1 .173 1.26l-2.045 3.902a1.09 1.09 0 0 1-1.133.574l-3.204-.486a16.665 16.665 0 0 1-3.506 2.927l-.093 3.237a1.098 1.098 0 0 1-.776 1.014l-4.207 1.313a.996.996 0 0 1-.316.052Zm-2.04-4.696 2.229 3.026 3.537-1.104.109-3.755.378-.222a15.278 15.278 0 0 0 3.78-3.158l.284-.333 3.724.556 1.717-3.279-2.586-2.736.109-.424c.415-1.603.564-3.262.442-4.913l-.031-.437 3.025-2.229-1.106-3.535-3.755-.108-.222-.378a15.23 15.23 0 0 0-3.158-3.78l-.33-.285.563-3.718-3.281-1.717-2.736 2.585-.424-.108a15.23 15.23 0 0 0-4.913-.445l-.437.034-2.227-3.026-3.535 1.105-.11 3.757-.378.222c-1.424.841-2.7 1.91-3.778 3.165l-.28.339-3.718-.564-1.717 3.282 2.586 2.735-.111.424a15.15 15.15 0 0 0-.442 4.913l.03.437-3.027 2.219 1.104 3.535 3.755.109.222.377a15.183 15.183 0 0 0 3.15 3.773l.33.287-.56 3.716 3.278 1.719 2.736-2.586.424.112c1.603.413 3.262.562 4.913.442l.437-.029Zm-1.564-3.718a11.424 11.424 0 0 1-11.298-9.695 11.42 11.42 0 0 1 7.884-12.629 11.639 11.639 0 0 1 2.385-.478.794.794 0 1 1 .142 1.583 9.822 9.822 0 0 0-8.869 8.667 9.827 9.827 0 1 0 16.31-6.208.8.8 0 0 1-.251-.869.796.796 0 0 1 1.307-.316 11.43 11.43 0 0 1 3.06 12.587 11.422 11.422 0 0 1-10.66 7.358h-.01Z" fill="#7D97F4"/><path d="M489.501 216.568s-6.1 5.787-8.117 16.068c-2.017 10.281-6.804-14.535-6.804-14.535h-4.84s-1.826 25.574 11.838 27.606a7.33 7.33 0 0 0 6.844-2.71c2.496-3.167 6.387-8.791 7.329-14.175-.82-8.458-6.25-12.254-6.25-12.254Z" fill="url(#bV)"/><path d="M520.489 334.998a1.05 1.05 0 0 0-.023-.23c-1.146-4.535-5.826-6.863-5.826-6.863l-2.25.179c-1.293 3.998-2.128 5.947-1.921 7.044l.023.088a53.43 53.43 0 0 0 9.997-.218Z" fill="url(#bW)"/><path d="M510.492 335.218a.981.981 0 0 0 .714.722c2.643.556 6.84.108 8.603-.122a.823.823 0 0 0 .68-.817 53.516 53.516 0 0 1-9.997.217Z" fill="url(#bX)"/><path d="m516.494 324.396-.985 4.745a.774.774 0 0 1-.662.637 6.508 6.508 0 0 1-1.528-.024.973.973 0 0 1-.776-1.145l.685-4.213h3.266Z" fill="url(#bY)"/><path d="M491.37 335.179c2.402-.067 3.646-.351 4.29-.612v.734a.478.478 0 0 1-.471.473l-13.187-.085a.602.602 0 0 1-.552-.592.602.602 0 0 1 .068-.285c1.728.15 6.136.471 9.852.367Z" fill="url(#bZ)"/><path d="M481.516 334.82a.507.507 0 0 1 .051-.098c1.167-1.629 4.138-4.872 10.002-6.279l2.814-.09s1.251 2.18 1.277 6.206c-.644.258-1.888.545-4.29.613-3.716.111-8.124-.21-9.854-.352Z" fill="url(#ca)"/><path d="M494.905 324.089c-.031.209-.419 3.398-.566 4.634a.612.612 0 0 1-.517.553 6.47 6.47 0 0 1-1.935-.031.84.84 0 0 1-.631-.835v-5.004l3.649.683Z" fill="url(#cb)"/><path d="M514.614 262.112s4.502 40.028 2.002 65.046c0 0-3.003 0-4.505-.499 0 0-4.678-39.139-6.206-50.338a.38.38 0 0 0-.118-.235.377.377 0 0 0-.492-.015.373.373 0 0 0-.132.227c-1.867 9.422-9.203 46.371-10.085 49.859 0 0-2.5 1.001-4.502 0 0 0 4.003-53.526 7.005-63.045l17.033-1Z" fill="url(#cc)"/><path d="M523.633 215.577s-19.013-3.002-34.024 1.001l1.001 15.515s4.003 21.517 7.005 31.03c0 0 11.507 2.001 17.012-1.001 0 0 4.502-27.019 7.005-31.03-.013-.002 2.49-10.511 2.001-15.515Z" fill="url(#cd)"/><path d="m510.278 199.243 2.027 15.468s-5.291 2.431-8.996-.106l.796-9.05 6.173-6.312Z" fill="url(#ce)"/><path d="M523.634 215.577s29.522 32.026-5.255 44.283v-2.501s13.009-11.008 3.002-26.019c-.013 0 1.239-14.255 2.253-15.763Z" fill="url(#cf)"/><path d="M518.115 257.61s-4.502-3.002-6.503-2.002c-2.001 1.001-2.001 2.501-2.001 2.501s1 2.001 2.5 1.502c1.5-.499 5.004.499 6.506 0 0 0 .499-2.001-.502-2.001Z" fill="url(#cg)"/><path d="m469.437 201.937 6.354 2.139c.775.232 1.293 1.008 1.36 1.996l-.331 10.602c.103 1.66-1.265 3.121-2.558 2.733l-5.094-1.735c-.496-.15-.825-.67-.83-1.314l-.111-13.187c-.008-.776.623-1.412 1.21-1.234Z" fill="url(#ch)"/><path d="M468.227 215.577s-1.989-6.369-.977-7.442c1.011-1.073 3.022-4.031 3.157-1.613.134 2.418 1.35 12.869-2.18 9.055Z" fill="url(#ci)"/><path d="M498.636 196.628c-.028.184 2.229 12.28 2.229 12.28l6.881-1.437-.437-11.784s-8.176-2.133-8.673.941Z" fill="url(#cj)"/><path d="M505.251 197.606a1.02 1.02 0 0 1 .481.75l.706 6.095a.981.981 0 0 1 0 .276c-.083.517-.484 2.097-2.115 1.606-1.392-.419-2.677-.776-3.621-.618a1.006 1.006 0 0 0-.806 1.187 37.647 37.647 0 0 0 1.411 5.378 1.006 1.006 0 0 0 1.216.621c1.332-.37 3.912-1.169 5.883-2.294a1.011 1.011 0 0 0 .517-.905c-.042-1.639-.137-6.234.036-7.537.16-1.211 1.621-1.924 2.327-2.198a1.01 1.01 0 0 0 .574-.577c.31-.791.654-2.436-1.399-3.193a1.018 1.018 0 0 1-.589-1.278c.32-.92.406-2.257-1.252-3.036-1.657-.778-2.976.026-3.721.758a1.06 1.06 0 0 1-.592.3 1.06 1.06 0 0 1-.654-.114.664.664 0 0 0-.662 0 .991.991 0 0 1-.756.064.976.976 0 0 1-.576-.493c-.421-.851-1.27-1.727-2.95-1.469-3.08.473-3.483 3.879-2.708 5.88.776 2.002 4.089 1.293 5.759.326 1.202-.737 2.754.023 3.491.471Z" fill="url(#ck)"/><path d="M508.848 204.213s-.872-3.362.442-4.195c1.314-.832 3.224-.362 2.759 2.193-.569 3.176-3.201 2.002-3.201 2.002Z" fill="url(#cl)"/><path d="M495.399 194.772a.106.106 0 0 1-.058-.017.102.102 0 0 1-.04-.045c-1.12-2.395 1.492-4.306 1.517-4.326a.112.112 0 0 1 .076-.01.112.112 0 0 1 .063.043.115.115 0 0 1 .02.074.109.109 0 0 1-.034.068c-.024.019-2.491 1.829-1.448 4.06a.117.117 0 0 1 .01.041.14.14 0 0 1-.006.041.12.12 0 0 1-.022.036.1.1 0 0 1-.034.024.099.099 0 0 1-.044.011Z" fill="#fff"/><path d="M454.101 202.278v21.871c0 1.782-1.086 3.227-2.426 3.227h-79.674c-1.112 0-2.069 1.009-2.353 2.444l-1.422 7.615c-.189 1.009-1.244 1.094-1.524.119l-1.841-6.431c-.359-1.251-1.262-2.068-2.267-2.068h-3.419c-1.339 0-2.425-1.446-2.425-3.227v-22.492c0-1.771 1.073-3.212 2.404-3.227l92.513-1.058c1.337-.015 2.434 1.435 2.434 3.227Z" fill="#BDD0FB"/><path d="M369.066 223.381c5.397 0 9.772-4.49 9.772-10.03 0-5.54-4.375-10.03-9.772-10.03s-9.772 4.49-9.772 10.03c0 5.54 4.375 10.03 9.772 10.03Z" fill="#7D97F4"/><path d="M372.606 209.286c0 1.81-1.461 3.747-3.261 3.747s-3.263-1.945-3.263-3.747c0-1.802 1.461-3.08 3.263-3.08 1.803 0 3.261 1.278 3.261 3.08Z" fill="url(#cm)"/><path d="M365.296 219.971h7.964a1.935 1.935 0 0 0 1.836-1.342l.427-1.34a1.926 1.926 0 0 0-1.161-2.394c-3.243-1.187-6.594-1.035-10.026.108a1.922 1.922 0 0 0-1.23 2.328l.331 1.215a1.928 1.928 0 0 0 1.859 1.425Z" fill="url(#cn)"/><path d="M446.491 215.968a1.943 1.943 0 0 1-1.984 1.893h-58.145a1.943 1.943 0 0 1-1.975-1.898 1.938 1.938 0 0 1 1.975-1.896h58.145a1.94 1.94 0 0 1 1.976 1.896l.008.005Z" fill="url(#co)"/><path d="M418.954 222.05a1.721 1.721 0 0 1-1.722 1.722h-30.487a1.723 1.723 0 0 1 0-3.447h30.487a1.732 1.732 0 0 1 1.592 1.065c.086.209.131.433.13.66Z" fill="url(#cp)"/><path d="M446.527 222.05a1.728 1.728 0 0 1-1.725 1.722h-22.003a1.722 1.722 0 0 1-1.591-2.382 1.717 1.717 0 0 1 1.591-1.065h22.003a1.727 1.727 0 0 1 1.725 1.725Z" fill="url(#cq)"/><path d="M416.004 204.153h-29.357a2.42 2.42 0 0 0-2.42 2.42v.197a2.42 2.42 0 0 0 2.42 2.42h29.357a2.42 2.42 0 0 0 2.42-2.42v-.197a2.42 2.42 0 0 0-2.42-2.42Z" fill="#7D97F4"/><path d="M186.618 214.072c-.018 19.229-.166 85.545-1.316 109.021-.122 2.485-1.872 4.445-4.001 4.479-10.529.171-49.13.339-66.31-.887-3.582-.259-6.356-3.716-6.338-7.913.088-20.169.556-76.928 3.007-102.877.292-3.103 2.439-5.541 5.102-5.794 11.489-1.087 50.294-3.507 65.137-2.051 2.676.264 4.722 2.881 4.719 6.022Z" fill="url(#cr)"/><path d="M181.788 219.865c.222 15.515.866 67.166-.124 86.234-.143 2.788-2.069 5.001-4.458 5.11-9.827.455-43.305 1.194-57.664-.471-2.586-.3-4.562-2.795-4.634-5.833-.38-15.841-1.407-63.935-.447-82.791.155-3.007 2.2-5.43 4.77-5.634 10.633-.879 46.237-2.744 58.44-1.694 2.307.199 4.083 2.392 4.117 5.079Z" fill="url(#cs)"/><path d="M156.643 211.171a1.048 1.048 0 0 1-.92 1.089c-2.488.095-9.498.372-12.632.517-.618.028-1.089-.631-.954-1.337l.023-.122a1.014 1.014 0 0 1 .861-.876c2.12-.179 8.515-.667 12.74-.396.507.031.895.53.882 1.125Z" fill="url(#ct)"/><path d="M148.141 287.825c13.624 0 24.669-11.044 24.669-24.669 0-13.624-11.045-24.668-24.669-24.668s-24.669 11.044-24.669 24.668c0 13.625 11.045 24.669 24.669 24.669Z" fill="url(#cu)"/><path d="M163.317 269.603a4.404 4.404 0 0 0-2.611-2.891l-1.774-.703a3.404 3.404 0 0 0-3.98 1.124l-1.58 2.11c-2.482.073-5.345-.853-7.887-2.753-2.386-1.787-4.028-4.089-4.742-6.349a.079.079 0 0 1 0-.048.071.071 0 0 1 .029-.039.08.08 0 0 1 .093.002l1.424-1.903a3.875 3.875 0 0 0-.072-4.75l-1.179-1.482a4.436 4.436 0 0 0-1.578-1.252 4.435 4.435 0 0 0-3.923.057 4.449 4.449 0 0 0-1.54 1.298 5.734 5.734 0 0 0-.937 1.911c-1.308 4.624 2.416 11.611 9.284 16.754 6.868 5.143 14.615 6.739 18.682 4.186a5.789 5.789 0 0 0 1.58-1.44 4.4 4.4 0 0 0 .711-3.832Z" fill="url(#cv)"/><path d="M118.782 323.269a7.59 7.59 0 0 1-7.587-7.532v-12.87a.26.26 0 0 1 .075-.183.26.26 0 0 1 .442.183v12.87a7.044 7.044 0 0 0 7.049 6.981.279.279 0 0 1 .279.274.25.25 0 0 1-.069.195.26.26 0 0 1-.189.082Z" fill="url(#cw)"/><path d="M77.338 325.389s-.517 2.889-.762 5.749a1.967 1.967 0 0 0 1.118 1.944c.24.114.501.178.767.189 3.809.16 11.954.468 14.879.339a.644.644 0 0 0 .606-.58.637.637 0 0 0-.043-.299 1.43 1.43 0 0 0-.734-.776l-13.446-6.185-2.385-.381Z" fill="url(#cx)"/><path d="m76.92 323.691.408 3.457s2.358 1.096 3.967-.14l-.975-3.85-3.4.533Z" fill="url(#cy)"/><path d="M77.227 258.73c-.175.902-.951 45.029 3.768 64.803a.67.67 0 0 1-.396.776 11.689 11.689 0 0 1-3.84.775 1.155 1.155 0 0 1-1.148-.83c-1.347-4.587-7.809-27.575-8.652-49.534-.941-24.539 0-.835 0-.835l.553-15.168 9.715.013Z" fill="url(#cz)"/><path d="M61.86 326.897s-.812 1.458-1.6 5.332a1.204 1.204 0 0 0 1.06 1.44c1.256.124 3.19.282 4.742.272a1.198 1.198 0 0 0 1.187-1.337c-.171-1.415-.706-3.734-2.361-5.544l-3.028-.163Z" fill="url(#cA)"/><path d="m61.146 322.452.957 5.226s.949.703 2.821.194l-.458-5.624-3.32.204Z" fill="url(#cB)"/><path d="M58.558 260.082c-3.858 23.272.838 57.545 2.42 64.25a1.034 1.034 0 0 0 .846.794 7.07 7.07 0 0 0 3.015-.119.963.963 0 0 0 .69-.885c.212-5.43-.17-38.702 3.424-51.856a2.995 2.995 0 0 1 1.153-1.649l6.982-4.96.535-8.016-19.065 2.441Z" fill="url(#cC)"/><path d="M83.141 215.968c-11.56-.192-24.32 3.036-24.32 3.036-3.444 20.107-.602 43.299-.602 43.299 8.952 2.348 19.047-1.435 19.047-1.435 1.487-8.404 8.43-32.064 8.43-32.064 5.648-.701 10.302-2.327 14.134-4.487-2.924-3.387-4.303-7.698-4.9-10.247-4.088 1.277-8.223 1.957-11.789 1.898Z" fill="url(#cD)"/><path d="M117.289 198.938a2.207 2.207 0 0 0-2.585-.722c-1.702 7.186-10.623 13.012-19.787 15.862.597 2.549 1.975 6.86 4.9 10.247 15.223-8.551 17.472-25.387 17.472-25.387Z" fill="url(#cE)"/><path d="M117.013 199.287c.119.377-1.257.954-2.069-.593-.028-.739-.478-3.912-.036-4.514 2.356-3.215 6.925-7.241 6.925-7.241a1.089 1.089 0 0 1 .137 1.51l-2.216 2.31c.463.837 1.034 1.551 1.293 2.557a3.102 3.102 0 0 1-.311 2.286c-.433.8-.908 1.576-1.422 2.327a3.062 3.062 0 0 1-2.301 1.358Z" fill="url(#cF)"/><path d="m118.787 192.261-2.02 1.712-.636 1.706 1.81 1.997s.605-3.383 1.055-4.114c.45-.732.215-1.092-.209-1.301Z" fill="url(#cG)"/><path d="m63.256 230.198-4.434-11.194s-10.799 7.336-12.575 16.639a24.548 24.548 0 0 1 9.097 2.55c1.639-3.69 7.912-7.995 7.912-7.995Z" fill="url(#cH)"/><path d="m71.43 206.581-3.677 10.638a.388.388 0 0 0 .176.463c1.003.554 4.615 2.157 8.967-.605a1.804 1.804 0 0 0 .833-1.293l1.19-9.208-7.49.005Z" fill="url(#cI)"/><path d="M79.433 196.729s4.04 7.605 3.522 10.677c-.517 3.072-5.523 2.845-9.896.357l-3.054-8.213 9.428-2.821Z" fill="url(#cJ)"/><path d="M73.253 203.729a.31.31 0 0 0 .185-.331.317.317 0 0 0-.048-.127c-.323-.494-.93-1.502-1.125-2.386 0 0-.727-.466 1.849-1.081 2.575-.616 6.413-1.572 7.22-3.765.788-2.136-1.28-7.499-4.577-3.227a.311.311 0 0 1-.387.09.311.311 0 0 1-.11-.09c-.54-.704-1.962-2.165-3.935-1.278-1.847.828-2.056 2.183-2.03 2.863a.312.312 0 0 1-.37.32c-.933-.178-3.173-.331-4.22 1.966-.861 1.895-.3 2.966.21 3.491a.307.307 0 0 1 .08.297.308.308 0 0 1-.215.22c-.613.188-1.407.708-1.327 2.146.109 1.988 2.328 1.81 2.964 1.722a.314.314 0 0 1 .279.098c.543.6 2.987 3.15 5.632 3.458a.332.332 0 0 0 .156-.023.318.318 0 0 0 .175-.396l-1.146-3.326a.318.318 0 0 1 .171-.39l.569-.251Z" fill="url(#cK)"/><path d="M73.713 204.202s-2.875-1.973-3.087-.313c-.212 1.66 2.586 2.408 3.977 1.79l-.89-1.477Z" fill="url(#cL)"/><path d="M46.322 235.734s-7.38 16.808 10.66 19.272l2.463-2.051s-9.022-4.913-4.102-14.762c-.002 0-5.332-4.51-9.021-2.459Z" fill="url(#cM)"/><path d="m59.28 244.582 6.352 2.142c.776.23 1.293 1.008 1.36 1.993l-.33 10.602c.103 1.66-1.265 3.121-2.558 2.733l-5.094-1.735c-.494-.15-.825-.67-.83-1.313l-.111-13.188c-.008-.773.633-1.409 1.21-1.234Z" fill="url(#cN)"/><path d="M57.637 257.165c-.173-.191-1.36-2.363-1.052-5.27.308-2.906-.259-4.22 1.091-4.106 1.35.114 2.477.341 2.327 1.771-.15 1.43.272 10.506-2.366 7.605Z" fill="url(#cO)"/><defs><linearGradient id="a" x1="580.01" y1="163.651" x2="-.001" y2="163.651" gradientUnits="userSpaceOnUse"><stop stop-color="#DAE3FE"/><stop offset="1" stop-color="#E9EFFD"/></linearGradient><linearGradient id="b" x1="283.935" y1="78.428" x2="299.83" y2="455.963" gradientUnits="userSpaceOnUse"><stop stop-color="#FE7062"/><stop offset="1" stop-color="#FF928E"/></linearGradient><linearGradient id="c" x1="283.798" y1="-4.274" x2="299.171" y2="360.826" gradientUnits="userSpaceOnUse"><stop stop-color="#E1473D"/><stop offset="1" stop-color="#E9605A"/></linearGradient><linearGradient id="d" x1="323.354" y1="168.427" x2="455.391" y2="301.729" gradientUnits="userSpaceOnUse"><stop stop-color="#09005D"/><stop offset="1" stop-color="#1A0F91"/></linearGradient><linearGradient id="e" x1="392.524" y1="331.707" x2="384.079" y2="293.436" gradientUnits="userSpaceOnUse"><stop stop-color="#FF928E"/><stop offset="1" stop-color="#FEB3B1"/></linearGradient><linearGradient id="f" x1="358.306" y1="70.777" x2="360.724" y2="91.931" gradientUnits="userSpaceOnUse"><stop stop-color="#4042E2"/><stop offset="1" stop-color="#4F52FF"/></linearGradient><linearGradient id="g" x1="407.37" y1="240.026" x2="387.544" y2="288.296" gradientUnits="userSpaceOnUse"><stop stop-color="#FF928E"/><stop offset="1" stop-color="#FEB3B1"/></linearGradient><linearGradient id="h" x1="398.05" y1="290.098" x2="418.6" y2="330.292" gradientUnits="userSpaceOnUse"><stop stop-color="#09005D"/><stop offset="1" stop-color="#1A0F91"/></linearGradient><linearGradient id="i" x1="333.738" y1="73.589" x2="336.156" y2="94.741" gradientUnits="userSpaceOnUse"><stop stop-color="#4042E2"/><stop offset="1" stop-color="#4F52FF"/></linearGradient><linearGradient id="j" x1="397.412" y1="260.881" x2="416.231" y2="301.84" gradientUnits="userSpaceOnUse"><stop stop-color="#4042E2"/><stop offset="1" stop-color="#4F52FF"/></linearGradient><linearGradient id="k" x1="392.928" y1="245.953" x2="401.376" y2="266.64" gradientUnits="userSpaceOnUse"><stop stop-color="#FF928E"/><stop offset="1" stop-color="#FEB3B1"/></linearGradient><linearGradient id="l" x1="-616.987" y1="349.996" x2="-603.714" y2="348.618" gradientUnits="userSpaceOnUse"><stop stop-color="#FF928E"/><stop offset="1" stop-color="#FEB3B1"/></linearGradient><linearGradient id="m" x1="325.208" y1="166.592" x2="457.245" y2="299.893" gradientUnits="userSpaceOnUse"><stop stop-color="#09005D"/><stop offset="1" stop-color="#1A0F91"/></linearGradient><linearGradient id="n" x1="-616.739" y1="352.402" x2="-603.466" y2="351.023" gradientUnits="userSpaceOnUse"><stop stop-color="#FF928E"/><stop offset="1" stop-color="#FEB3B1"/></linearGradient><linearGradient id="o" x1="439.049" y1="286.041" x2="398.366" y2="282.421" gradientUnits="userSpaceOnUse"><stop stop-color="#FF928E"/><stop offset="1" stop-color="#FEB3B1"/></linearGradient><linearGradient id="p" x1="401.707" y1="331.497" x2="406.809" y2="299.405" gradientUnits="userSpaceOnUse"><stop stop-color="#4042E2"/><stop offset="1" stop-color="#4F52FF"/></linearGradient><linearGradient id="q" x1="403.755" y1="331.823" x2="408.857" y2="299.73" gradientUnits="userSpaceOnUse"><stop stop-color="#4042E2"/><stop offset="1" stop-color="#4F52FF"/></linearGradient><linearGradient id="r" x1="399.811" y1="331.197" x2="404.913" y2="299.105" gradientUnits="userSpaceOnUse"><stop stop-color="#4042E2"/><stop offset="1" stop-color="#4F52FF"/></linearGradient><linearGradient id="s" x1="408.626" y1="279.888" x2="387.993" y2="286.656" gradientUnits="userSpaceOnUse"><stop stop-color="#09005D"/><stop offset="1" stop-color="#1A0F91"/></linearGradient><linearGradient id="t" x1="357.644" y1="285.025" x2="380.917" y2="268.993" gradientUnits="userSpaceOnUse"><stop stop-color="#09005D"/><stop offset="1" stop-color="#1A0F91"/></linearGradient><linearGradient id="u" x1="329.826" y1="288.979" x2="440.608" y2="288.979" gradientUnits="userSpaceOnUse"><stop stop-color="#DAE3FE"/><stop offset="1" stop-color="#E9EFFD"/></linearGradient><linearGradient id="v" x1="336.19" y1="313.259" x2="358.058" y2="313.259" gradientUnits="userSpaceOnUse"><stop stop-color="#DAE3FE"/><stop offset="1" stop-color="#E9EFFD"/></linearGradient><linearGradient id="w" x1="338.714" y1="313.259" x2="360.584" y2="313.259" gradientUnits="userSpaceOnUse"><stop stop-color="#DAE3FE"/><stop offset="1" stop-color="#E9EFFD"/></linearGradient><linearGradient id="x" x1="414.809" y1="313.259" x2="436.677" y2="313.259" gradientUnits="userSpaceOnUse"><stop stop-color="#DAE3FE"/><stop offset="1" stop-color="#E9EFFD"/></linearGradient><linearGradient id="y" x1="417.333" y1="313.259" x2="439.201" y2="313.259" gradientUnits="userSpaceOnUse"><stop stop-color="#DAE3FE"/><stop offset="1" stop-color="#E9EFFD"/></linearGradient><linearGradient id="A" x1="302.078" y1="27.872" x2="274.945" y2="311.961" gradientUnits="userSpaceOnUse"><stop stop-color="#4042E2"/><stop offset="1" stop-color="#4F52FF"/></linearGradient><linearGradient id="B" x1="508.85" y1="155.573" x2="509.554" y2="155.573" gradientUnits="userSpaceOnUse"><stop stop-color="#DAE3FE"/><stop offset="1" stop-color="#E9EFFD"/></linearGradient><linearGradient id="C" x1="509.124" y1="161.06" x2="509.748" y2="161.06" gradientUnits="userSpaceOnUse"><stop stop-color="#DAE3FE"/><stop offset="1" stop-color="#E9EFFD"/></linearGradient><linearGradient id="D" x1="508.791" y1="166.55" x2="509.603" y2="166.55" gradientUnits="userSpaceOnUse"><stop stop-color="#DAE3FE"/><stop offset="1" stop-color="#E9EFFD"/></linearGradient><linearGradient id="E" x1="508.002" y1="172.001" x2="509.005" y2="172.001" gradientUnits="userSpaceOnUse"><stop stop-color="#DAE3FE"/><stop offset="1" stop-color="#E9EFFD"/></linearGradient><linearGradient id="F" x1="506.782" y1="177.377" x2="507.968" y2="177.377" gradientUnits="userSpaceOnUse"><stop stop-color="#DAE3FE"/><stop offset="1" stop-color="#E9EFFD"/></linearGradient><linearGradient id="G" x1="505.142" y1="182.647" x2="506.51" y2="182.647" gradientUnits="userSpaceOnUse"><stop stop-color="#DAE3FE"/><stop offset="1" stop-color="#E9EFFD"/></linearGradient><linearGradient id="H" x1="503.105" y1="187.785" x2="504.648" y2="187.785" gradientUnits="userSpaceOnUse"><stop stop-color="#DAE3FE"/><stop offset="1" stop-color="#E9EFFD"/></linearGradient><linearGradient id="I" x1="500.689" y1="192.763" x2="502.401" y2="192.763" gradientUnits="userSpaceOnUse"><stop stop-color="#DAE3FE"/><stop offset="1" stop-color="#E9EFFD"/></linearGradient><linearGradient id="J" x1="497.912" y1="197.549" x2="499.79" y2="197.549" gradientUnits="userSpaceOnUse"><stop stop-color="#DAE3FE"/><stop offset="1" stop-color="#E9EFFD"/></linearGradient><linearGradient id="K" x1="494.789" y1="202.123" x2="496.826" y2="202.123" gradientUnits="userSpaceOnUse"><stop stop-color="#DAE3FE"/><stop offset="1" stop-color="#E9EFFD"/></linearGradient><linearGradient id="L" x1="491.334" y1="206.46" x2="493.527" y2="206.46" gradientUnits="userSpaceOnUse"><stop stop-color="#DAE3FE"/><stop offset="1" stop-color="#E9EFFD"/></linearGradient><linearGradient id="M" x1="487.566" y1="210.527" x2="489.909" y2="210.527" gradientUnits="userSpaceOnUse"><stop stop-color="#DAE3FE"/><stop offset="1" stop-color="#E9EFFD"/></linearGradient><linearGradient id="N" x1="483.496" y1="214.3" x2="485.984" y2="214.3" gradientUnits="userSpaceOnUse"><stop stop-color="#DAE3FE"/><stop offset="1" stop-color="#E9EFFD"/></linearGradient><linearGradient id="O" x1="479.147" y1="217.747" x2="481.777" y2="217.747" gradientUnits="userSpaceOnUse"><stop stop-color="#DAE3FE"/><stop offset="1" stop-color="#E9EFFD"/></linearGradient><linearGradient id="P" x1="474.544" y1="220.829" x2="477.298" y2="220.829" gradientUnits="userSpaceOnUse"><stop stop-color="#DAE3FE"/><stop offset="1" stop-color="#E9EFFD"/></linearGradient><linearGradient id="Q" x1="469.711" y1="223.526" x2="472.561" y2="223.526" gradientUnits="userSpaceOnUse"><stop stop-color="#DAE3FE"/><stop offset="1" stop-color="#E9EFFD"/></linearGradient><linearGradient id="R" x1="464.666" y1="225.802" x2="467.612" y2="225.802" gradientUnits="userSpaceOnUse"><stop stop-color="#DAE3FE"/><stop offset="1" stop-color="#E9EFFD"/></linearGradient><linearGradient id="S" x1="459.453" y1="227.645" x2="462.474" y2="227.645" gradientUnits="userSpaceOnUse"><stop stop-color="#DAE3FE"/><stop offset="1" stop-color="#E9EFFD"/></linearGradient><linearGradient id="T" x1="454.116" y1="229.075" x2="457.204" y2="229.075" gradientUnits="userSpaceOnUse"><stop stop-color="#DAE3FE"/><stop offset="1" stop-color="#E9EFFD"/></linearGradient><linearGradient id="U" x1="448.691" y1="230.097" x2="451.833" y2="230.097" gradientUnits="userSpaceOnUse"><stop stop-color="#DAE3FE"/><stop offset="1" stop-color="#E9EFFD"/></linearGradient><linearGradient id="V" x1="443.209" y1="230.722" x2="446.398" y2="230.722" gradientUnits="userSpaceOnUse"><stop stop-color="#DAE3FE"/><stop offset="1" stop-color="#E9EFFD"/></linearGradient><linearGradient id="W" x1="437.704" y1="230.966" x2="440.926" y2="230.966" gradientUnits="userSpaceOnUse"><stop stop-color="#DAE3FE"/><stop offset="1" stop-color="#E9EFFD"/></linearGradient><linearGradient id="X" x1="432.196" y1="230.841" x2="435.449" y2="230.841" gradientUnits="userSpaceOnUse"><stop stop-color="#DAE3FE"/><stop offset="1" stop-color="#E9EFFD"/></linearGradient><linearGradient id="Y" x1="426.709" y1="230.381" x2="429.985" y2="230.381" gradientUnits="userSpaceOnUse"><stop stop-color="#DAE3FE"/><stop offset="1" stop-color="#E9EFFD"/></linearGradient><linearGradient id="Z" x1="421.263" y1="229.595" x2="424.555" y2="229.595" gradientUnits="userSpaceOnUse"><stop stop-color="#DAE3FE"/><stop offset="1" stop-color="#E9EFFD"/></linearGradient><linearGradient id="aa" x1="415.872" y1="228.506" x2="419.176" y2="228.506" gradientUnits="userSpaceOnUse"><stop stop-color="#DAE3FE"/><stop offset="1" stop-color="#E9EFFD"/></linearGradient><linearGradient id="ab" x1="410.545" y1="227.128" x2="413.863" y2="227.128" gradientUnits="userSpaceOnUse"><stop stop-color="#DAE3FE"/><stop offset="1" stop-color="#E9EFFD"/></linearGradient><linearGradient id="ac" x1="405.301" y1="225.481" x2="408.621" y2="225.481" gradientUnits="userSpaceOnUse"><stop stop-color="#DAE3FE"/><stop offset="1" stop-color="#E9EFFD"/></linearGradient><linearGradient id="ad" x1="400.145" y1="223.573" x2="403.47" y2="223.573" gradientUnits="userSpaceOnUse"><stop stop-color="#DAE3FE"/><stop offset="1" stop-color="#E9EFFD"/></linearGradient><linearGradient id="ae" x1="395.09" y1="221.421" x2="398.415" y2="221.421" gradientUnits="userSpaceOnUse"><stop stop-color="#DAE3FE"/><stop offset="1" stop-color="#E9EFFD"/></linearGradient><linearGradient id="af" x1="390.14" y1="219.032" x2="393.466" y2="219.032" gradientUnits="userSpaceOnUse"><stop stop-color="#DAE3FE"/><stop offset="1" stop-color="#E9EFFD"/></linearGradient><linearGradient id="ag" x1="385.323" y1="216.418" x2="388.622" y2="216.418" gradientUnits="userSpaceOnUse"><stop stop-color="#DAE3FE"/><stop offset="1" stop-color="#E9EFFD"/></linearGradient><linearGradient id="ah" x1="380.612" y1="213.607" x2="383.893" y2="213.607" gradientUnits="userSpaceOnUse"><stop stop-color="#DAE3FE"/><stop offset="1" stop-color="#E9EFFD"/></linearGradient><linearGradient id="ai" x1="376.011" y1="210.618" x2="379.27" y2="210.618" gradientUnits="userSpaceOnUse"><stop stop-color="#DAE3FE"/><stop offset="1" stop-color="#E9EFFD"/></linearGradient><linearGradient id="aj" x1="371.52" y1="207.471" x2="374.755" y2="207.471" gradientUnits="userSpaceOnUse"><stop stop-color="#DAE3FE"/><stop offset="1" stop-color="#E9EFFD"/></linearGradient><linearGradient id="ak" x1="367.132" y1="204.176" x2="370.343" y2="204.176" gradientUnits="userSpaceOnUse"><stop stop-color="#DAE3FE"/><stop offset="1" stop-color="#E9EFFD"/></linearGradient><linearGradient id="al" x1="362.839" y1="200.755" x2="366.035" y2="200.755" gradientUnits="userSpaceOnUse"><stop stop-color="#DAE3FE"/><stop offset="1" stop-color="#E9EFFD"/></linearGradient><linearGradient id="am" x1="358.642" y1="197.221" x2="361.82" y2="197.221" gradientUnits="userSpaceOnUse"><stop stop-color="#DAE3FE"/><stop offset="1" stop-color="#E9EFFD"/></linearGradient><linearGradient id="an" x1="354.528" y1="193.582" x2="357.691" y2="193.582" gradientUnits="userSpaceOnUse"><stop stop-color="#DAE3FE"/><stop offset="1" stop-color="#E9EFFD"/></linearGradient><linearGradient id="ao" x1="350.497" y1="189.859" x2="353.644" y2="189.859" gradientUnits="userSpaceOnUse"><stop stop-color="#DAE3FE"/><stop offset="1" stop-color="#E9EFFD"/></linearGradient><linearGradient id="ap" x1="346.533" y1="186.063" x2="349.672" y2="186.063" gradientUnits="userSpaceOnUse"><stop stop-color="#DAE3FE"/><stop offset="1" stop-color="#E9EFFD"/></linearGradient><linearGradient id="aq" x1="342.626" y1="182.197" x2="345.757" y2="182.197" gradientUnits="userSpaceOnUse"><stop stop-color="#DAE3FE"/><stop offset="1" stop-color="#E9EFFD"/></linearGradient><linearGradient id="ar" x1="338.77" y1="178.279" x2="341.899" y2="178.279" gradientUnits="userSpaceOnUse"><stop stop-color="#DAE3FE"/><stop offset="1" stop-color="#E9EFFD"/></linearGradient><linearGradient id="as" x1="334.959" y1="174.318" x2="338.085" y2="174.318" gradientUnits="userSpaceOnUse"><stop stop-color="#DAE3FE"/><stop offset="1" stop-color="#E9EFFD"/></linearGradient><linearGradient id="at" x1="331.179" y1="170.325" x2="334.307" y2="170.325" gradientUnits="userSpaceOnUse"><stop stop-color="#DAE3FE"/><stop offset="1" stop-color="#E9EFFD"/></linearGradient><linearGradient id="au" x1="327.421" y1="166.31" x2="330.553" y2="166.31" gradientUnits="userSpaceOnUse"><stop stop-color="#DAE3FE"/><stop offset="1" stop-color="#E9EFFD"/></linearGradient><linearGradient id="av" x1="323.677" y1="162.281" x2="326.816" y2="162.281" gradientUnits="userSpaceOnUse"><stop stop-color="#DAE3FE"/><stop offset="1" stop-color="#E9EFFD"/></linearGradient><linearGradient id="aw" x1="319.933" y1="158.252" x2="323.082" y2="158.252" gradientUnits="userSpaceOnUse"><stop stop-color="#DAE3FE"/><stop offset="1" stop-color="#E9EFFD"/></linearGradient><linearGradient id="ax" x1="316.178" y1="154.231" x2="319.343" y2="154.231" gradientUnits="userSpaceOnUse"><stop stop-color="#DAE3FE"/><stop offset="1" stop-color="#E9EFFD"/></linearGradient><linearGradient id="ay" x1="312.403" y1="150.228" x2="315.589" y2="150.228" gradientUnits="userSpaceOnUse"><stop stop-color="#DAE3FE"/><stop offset="1" stop-color="#E9EFFD"/></linearGradient><linearGradient id="az" x1="308.599" y1="146.254" x2="311.803" y2="146.254" gradientUnits="userSpaceOnUse"><stop stop-color="#DAE3FE"/><stop offset="1" stop-color="#E9EFFD"/></linearGradient><linearGradient id="aA" x1="304.751" y1="142.316" x2="307.984" y2="142.316" gradientUnits="userSpaceOnUse"><stop stop-color="#DAE3FE"/><stop offset="1" stop-color="#E9EFFD"/></linearGradient><linearGradient id="aB" x1="300.854" y1="138.427" x2="304.113" y2="138.427" gradientUnits="userSpaceOnUse"><stop stop-color="#DAE3FE"/><stop offset="1" stop-color="#E9EFFD"/></linearGradient><linearGradient id="aC" x1="296.901" y1="134.597" x2="300.187" y2="134.597" gradientUnits="userSpaceOnUse"><stop stop-color="#DAE3FE"/><stop offset="1" stop-color="#E9EFFD"/></linearGradient><linearGradient id="aD" x1="292.882" y1="130.84" x2="296.19" y2="130.84" gradientUnits="userSpaceOnUse"><stop stop-color="#DAE3FE"/><stop offset="1" stop-color="#E9EFFD"/></linearGradient><linearGradient id="aE" x1="288.789" y1="127.16" x2="292.112" y2="127.16" gradientUnits="userSpaceOnUse"><stop stop-color="#DAE3FE"/><stop offset="1" stop-color="#E9EFFD"/></linearGradient><linearGradient id="aF" x1="284.613" y1="123.582" x2="287.954" y2="123.582" gradientUnits="userSpaceOnUse"><stop stop-color="#DAE3FE"/><stop offset="1" stop-color="#E9EFFD"/></linearGradient><linearGradient id="aG" x1="280.346" y1="120.111" x2="283.708" y2="120.111" gradientUnits="userSpaceOnUse"><stop stop-color="#DAE3FE"/><stop offset="1" stop-color="#E9EFFD"/></linearGradient><linearGradient id="aH" x1="275.979" y1="116.763" x2="279.361" y2="116.763" gradientUnits="userSpaceOnUse"><stop stop-color="#DAE3FE"/><stop offset="1" stop-color="#E9EFFD"/></linearGradient><linearGradient id="aI" x1="271.508" y1="113.554" x2="274.916" y2="113.554" gradientUnits="userSpaceOnUse"><stop stop-color="#DAE3FE"/><stop offset="1" stop-color="#E9EFFD"/></linearGradient><linearGradient id="aJ" x1="266.928" y1="110.495" x2="270.365" y2="110.495" gradientUnits="userSpaceOnUse"><stop stop-color="#DAE3FE"/><stop offset="1" stop-color="#E9EFFD"/></linearGradient><linearGradient id="aK" x1="262.243" y1="107.604" x2="265.703" y2="107.604" gradientUnits="userSpaceOnUse"><stop stop-color="#DAE3FE"/><stop offset="1" stop-color="#E9EFFD"/></linearGradient><linearGradient id="aL" x1="257.454" y1="104.889" x2="260.935" y2="104.889" gradientUnits="userSpaceOnUse"><stop stop-color="#DAE3FE"/><stop offset="1" stop-color="#E9EFFD"/></linearGradient><linearGradient id="aM" x1="252.572" y1="102.349" x2="256.073" y2="102.349" gradientUnits="userSpaceOnUse"><stop stop-color="#DAE3FE"/><stop offset="1" stop-color="#E9EFFD"/></linearGradient><linearGradient id="aN" x1="247.602" y1="99.991" x2="251.119" y2="99.991" gradientUnits="userSpaceOnUse"><stop stop-color="#DAE3FE"/><stop offset="1" stop-color="#E9EFFD"/></linearGradient><linearGradient id="aO" x1="242.549" y1="97.809" x2="246.084" y2="97.809" gradientUnits="userSpaceOnUse"><stop stop-color="#DAE3FE"/><stop offset="1" stop-color="#E9EFFD"/></linearGradient><linearGradient id="aP" x1="237.424" y1="95.81" x2="240.972" y2="95.81" gradientUnits="userSpaceOnUse"><stop stop-color="#DAE3FE"/><stop offset="1" stop-color="#E9EFFD"/></linearGradient><linearGradient id="aQ" x1="232.232" y1="93.995" x2="235.793" y2="93.995" gradientUnits="userSpaceOnUse"><stop stop-color="#DAE3FE"/><stop offset="1" stop-color="#E9EFFD"/></linearGradient><linearGradient id="aR" x1="226.98" y1="92.36" x2="230.548" y2="92.36" gradientUnits="userSpaceOnUse"><stop stop-color="#DAE3FE"/><stop offset="1" stop-color="#E9EFFD"/></linearGradient><linearGradient id="aS" x1="221.674" y1="90.915" x2="225.25" y2="90.915" gradientUnits="userSpaceOnUse"><stop stop-color="#DAE3FE"/><stop offset="1" stop-color="#E9EFFD"/></linearGradient><linearGradient id="aT" x1="216.319" y1="89.656" x2="219.9" y2="89.656" gradientUnits="userSpaceOnUse"><stop stop-color="#DAE3FE"/><stop offset="1" stop-color="#E9EFFD"/></linearGradient><linearGradient id="aU" x1="210.927" y1="88.585" x2="214.511" y2="88.585" gradientUnits="userSpaceOnUse"><stop stop-color="#DAE3FE"/><stop offset="1" stop-color="#E9EFFD"/></linearGradient><linearGradient id="aV" x1="205.5" y1="87.703" x2="209.086" y2="87.703" gradientUnits="userSpaceOnUse"><stop stop-color="#DAE3FE"/><stop offset="1" stop-color="#E9EFFD"/></linearGradient><linearGradient id="aW" x1="200.049" y1="87.015" x2="203.633" y2="87.015" gradientUnits="userSpaceOnUse"><stop stop-color="#DAE3FE"/><stop offset="1" stop-color="#E9EFFD"/></linearGradient><linearGradient id="aX" x1="194.575" y1="86.519" x2="198.159" y2="86.519" gradientUnits="userSpaceOnUse"><stop stop-color="#DAE3FE"/><stop offset="1" stop-color="#E9EFFD"/></linearGradient><linearGradient id="aY" x1="189.09" y1="86.216" x2="192.666" y2="86.216" gradientUnits="userSpaceOnUse"><stop stop-color="#DAE3FE"/><stop offset="1" stop-color="#E9EFFD"/></linearGradient><linearGradient id="aZ" x1="183.6" y1="86.113" x2="187.169" y2="86.113" gradientUnits="userSpaceOnUse"><stop stop-color="#DAE3FE"/><stop offset="1" stop-color="#E9EFFD"/></linearGradient><linearGradient id="ba" x1="178.111" y1="86.203" x2="181.671" y2="86.203" gradientUnits="userSpaceOnUse"><stop stop-color="#DAE3FE"/><stop offset="1" stop-color="#E9EFFD"/></linearGradient><linearGradient id="bb" x1="172.629" y1="86.496" x2="176.179" y2="86.496" gradientUnits="userSpaceOnUse"><stop stop-color="#DAE3FE"/><stop offset="1" stop-color="#E9EFFD"/></linearGradient><linearGradient id="bc" x1="167.162" y1="86.987" x2="170.7" y2="86.987" gradientUnits="userSpaceOnUse"><stop stop-color="#DAE3FE"/><stop offset="1" stop-color="#E9EFFD"/></linearGradient><linearGradient id="bd" x1="161.719" y1="87.68" x2="165.241" y2="87.68" gradientUnits="userSpaceOnUse"><stop stop-color="#DAE3FE"/><stop offset="1" stop-color="#E9EFFD"/></linearGradient><linearGradient id="be" x1="156.307" y1="88.585" x2="159.811" y2="88.585" gradientUnits="userSpaceOnUse"><stop stop-color="#DAE3FE"/><stop offset="1" stop-color="#E9EFFD"/></linearGradient><linearGradient id="bf" x1="150.941" y1="89.718" x2="154.424" y2="89.718" gradientUnits="userSpaceOnUse"><stop stop-color="#DAE3FE"/><stop offset="1" stop-color="#E9EFFD"/></linearGradient><linearGradient id="bg" x1="145.635" y1="91.093" x2="149.09" y2="91.093" gradientUnits="userSpaceOnUse"><stop stop-color="#DAE3FE"/><stop offset="1" stop-color="#E9EFFD"/></linearGradient><linearGradient id="bh" x1="140.412" y1="92.722" x2="143.823" y2="92.722" gradientUnits="userSpaceOnUse"><stop stop-color="#DAE3FE"/><stop offset="1" stop-color="#E9EFFD"/></linearGradient><linearGradient id="bi" x1="135.284" y1="94.628" x2="138.641" y2="94.628" gradientUnits="userSpaceOnUse"><stop stop-color="#DAE3FE"/><stop offset="1" stop-color="#E9EFFD"/></linearGradient><linearGradient id="bj" x1="130.278" y1="96.821" x2="133.573" y2="96.821" gradientUnits="userSpaceOnUse"><stop stop-color="#DAE3FE"/><stop offset="1" stop-color="#E9EFFD"/></linearGradient><linearGradient id="bk" x1="125.422" y1="99.324" x2="128.644" y2="99.324" gradientUnits="userSpaceOnUse"><stop stop-color="#DAE3FE"/><stop offset="1" stop-color="#E9EFFD"/></linearGradient><linearGradient id="bl" x1="120.752" y1="102.148" x2="123.889" y2="102.148" gradientUnits="userSpaceOnUse"><stop stop-color="#DAE3FE"/><stop offset="1" stop-color="#E9EFFD"/></linearGradient><linearGradient id="bm" x1="116.307" y1="105.31" x2="119.348" y2="105.31" gradientUnits="userSpaceOnUse"><stop stop-color="#DAE3FE"/><stop offset="1" stop-color="#E9EFFD"/></linearGradient><linearGradient id="bn" x1="112.133" y1="108.819" x2="115.063" y2="108.819" gradientUnits="userSpaceOnUse"><stop stop-color="#DAE3FE"/><stop offset="1" stop-color="#E9EFFD"/></linearGradient><linearGradient id="bo" x1="108.275" y1="112.667" x2="111.081" y2="112.667" gradientUnits="userSpaceOnUse"><stop stop-color="#DAE3FE"/><stop offset="1" stop-color="#E9EFFD"/></linearGradient><linearGradient id="bp" x1="104.787" y1="116.851" x2="107.451" y2="116.851" gradientUnits="userSpaceOnUse"><stop stop-color="#DAE3FE"/><stop offset="1" stop-color="#E9EFFD"/></linearGradient><linearGradient id="bq" x1="101.741" y1="121.368" x2="104.239" y2="121.368" gradientUnits="userSpaceOnUse"><stop stop-color="#DAE3FE"/><stop offset="1" stop-color="#E9EFFD"/></linearGradient><linearGradient id="br" x1="99.158" y1="126.17" x2="101.49" y2="126.17" gradientUnits="userSpaceOnUse"><stop stop-color="#DAE3FE"/><stop offset="1" stop-color="#E9EFFD"/></linearGradient><linearGradient id="bs" x1="97.05" y1="131.207" x2="99.212" y2="131.207" gradientUnits="userSpaceOnUse"><stop stop-color="#DAE3FE"/><stop offset="1" stop-color="#E9EFFD"/></linearGradient><linearGradient id="bt" x1="95.416" y1="136.425" x2="97.41" y2="136.425" gradientUnits="userSpaceOnUse"><stop stop-color="#DAE3FE"/><stop offset="1" stop-color="#E9EFFD"/></linearGradient><linearGradient id="bu" x1="94.252" y1="141.773" x2="96.078" y2="141.773" gradientUnits="userSpaceOnUse"><stop stop-color="#DAE3FE"/><stop offset="1" stop-color="#E9EFFD"/></linearGradient><linearGradient id="bv" x1="93.554" y1="147.213" x2="95.217" y2="147.213" gradientUnits="userSpaceOnUse"><stop stop-color="#DAE3FE"/><stop offset="1" stop-color="#E9EFFD"/></linearGradient><linearGradient id="bw" x1="93.322" y1="152.698" x2="94.819" y2="152.698" gradientUnits="userSpaceOnUse"><stop stop-color="#DAE3FE"/><stop offset="1" stop-color="#E9EFFD"/></linearGradient><linearGradient id="bx" x1="93.43" y1="158.19" x2="94.992" y2="158.19" gradientUnits="userSpaceOnUse"><stop stop-color="#DAE3FE"/><stop offset="1" stop-color="#E9EFFD"/></linearGradient><linearGradient id="by" x1="93.978" y1="163.649" x2="95.654" y2="163.649" gradientUnits="userSpaceOnUse"><stop stop-color="#DAE3FE"/><stop offset="1" stop-color="#E9EFFD"/></linearGradient><linearGradient id="bz" x1="94.987" y1="169.04" x2="96.779" y2="169.04" gradientUnits="userSpaceOnUse"><stop stop-color="#DAE3FE"/><stop offset="1" stop-color="#E9EFFD"/></linearGradient><linearGradient id="bA" x1="96.453" y1="174.318" x2="98.361" y2="174.318" gradientUnits="userSpaceOnUse"><stop stop-color="#DAE3FE"/><stop offset="1" stop-color="#E9EFFD"/></linearGradient><linearGradient id="bB" x1="98.385" y1="179.438" x2="100.407" y2="179.438" gradientUnits="userSpaceOnUse"><stop stop-color="#DAE3FE"/><stop offset="1" stop-color="#E9EFFD"/></linearGradient><linearGradient id="bC" x1="100.776" y1="184.353" x2="102.915" y2="184.353" gradientUnits="userSpaceOnUse"><stop stop-color="#DAE3FE"/><stop offset="1" stop-color="#E9EFFD"/></linearGradient><linearGradient id="bD" x1="103.631" y1="189.011" x2="105.868" y2="189.011" gradientUnits="userSpaceOnUse"><stop stop-color="#DAE3FE"/><stop offset="1" stop-color="#E9EFFD"/></linearGradient><linearGradient id="bE" x1="106.941" y1="193.363" x2="109.268" y2="193.363" gradientUnits="userSpaceOnUse"><stop stop-color="#DAE3FE"/><stop offset="1" stop-color="#E9EFFD"/></linearGradient><linearGradient id="bF" x1="110.68" y1="197.347" x2="113.088" y2="197.347" gradientUnits="userSpaceOnUse"><stop stop-color="#DAE3FE"/><stop offset="1" stop-color="#E9EFFD"/></linearGradient><linearGradient id="bG" x1="114.815" y1="200.931" x2="117.287" y2="200.931" gradientUnits="userSpaceOnUse"><stop stop-color="#DAE3FE"/><stop offset="1" stop-color="#E9EFFD"/></linearGradient><linearGradient id="bH" x1="119.286" y1="204.086" x2="121.807" y2="204.086" gradientUnits="userSpaceOnUse"><stop stop-color="#DAE3FE"/><stop offset="1" stop-color="#E9EFFD"/></linearGradient><linearGradient id="bI" x1="124.046" y1="206.801" x2="126.598" y2="206.801" gradientUnits="userSpaceOnUse"><stop stop-color="#DAE3FE"/><stop offset="1" stop-color="#E9EFFD"/></linearGradient><linearGradient id="bJ" x1="129.042" y1="209.071" x2="131.61" y2="209.071" gradientUnits="userSpaceOnUse"><stop stop-color="#DAE3FE"/><stop offset="1" stop-color="#E9EFFD"/></linearGradient><linearGradient id="bK" x1="134.221" y1="210.889" x2="136.797" y2="210.889" gradientUnits="userSpaceOnUse"><stop stop-color="#DAE3FE"/><stop offset="1" stop-color="#E9EFFD"/></linearGradient><linearGradient id="bL" x1="139.548" y1="212.257" x2="142.113" y2="212.257" gradientUnits="userSpaceOnUse"><stop stop-color="#DAE3FE"/><stop offset="1" stop-color="#E9EFFD"/></linearGradient><linearGradient id="bM" x1="144.976" y1="213.17" x2="147.52" y2="213.17" gradientUnits="userSpaceOnUse"><stop stop-color="#DAE3FE"/><stop offset="1" stop-color="#E9EFFD"/></linearGradient><linearGradient id="bN" x1="150.468" y1="213.625" x2="152.979" y2="213.625" gradientUnits="userSpaceOnUse"><stop stop-color="#DAE3FE"/><stop offset="1" stop-color="#E9EFFD"/></linearGradient><linearGradient id="bO" x1="155.984" y1="213.628" x2="158.453" y2="213.628" gradientUnits="userSpaceOnUse"><stop stop-color="#DAE3FE"/><stop offset="1" stop-color="#E9EFFD"/></linearGradient><linearGradient id="bP" x1="161.484" y1="213.154" x2="163.902" y2="213.154" gradientUnits="userSpaceOnUse"><stop stop-color="#DAE3FE"/><stop offset="1" stop-color="#E9EFFD"/></linearGradient><linearGradient id="bQ" x1="166.935" y1="212.205" x2="169.28" y2="212.205" gradientUnits="userSpaceOnUse"><stop stop-color="#DAE3FE"/><stop offset="1" stop-color="#E9EFFD"/></linearGradient><linearGradient id="bR" x1="172.282" y1="210.775" x2="174.542" y2="210.775" gradientUnits="userSpaceOnUse"><stop stop-color="#DAE3FE"/><stop offset="1" stop-color="#E9EFFD"/></linearGradient><linearGradient id="bS" x1="177.477" y1="208.862" x2="179.641" y2="208.862" gradientUnits="userSpaceOnUse"><stop stop-color="#DAE3FE"/><stop offset="1" stop-color="#E9EFFD"/></linearGradient><linearGradient id="bT" x1="182.475" y1="206.457" x2="184.523" y2="206.457" gradientUnits="userSpaceOnUse"><stop stop-color="#DAE3FE"/><stop offset="1" stop-color="#E9EFFD"/></linearGradient><linearGradient id="bU" x1="187.215" y1="203.677" x2="188.842" y2="203.677" gradientUnits="userSpaceOnUse"><stop stop-color="#DAE3FE"/><stop offset="1" stop-color="#E9EFFD"/></linearGradient><linearGradient id="bV" x1="467.182" y1="162.909" x2="502.631" y2="311.217" gradientUnits="userSpaceOnUse"><stop stop-color="#4042E2"/><stop offset="1" stop-color="#4F52FF"/></linearGradient><linearGradient id="bW" x1="514.449" y1="365.312" x2="515.046" y2="347.372" gradientUnits="userSpaceOnUse"><stop stop-color="#4042E2"/><stop offset="1" stop-color="#4F52FF"/></linearGradient><linearGradient id="bX" x1="535.764" y1="319.398" x2="498.799" y2="348.421" gradientUnits="userSpaceOnUse"><stop stop-color="#09005D"/><stop offset="1" stop-color="#1A0F91"/></linearGradient><linearGradient id="bY" x1="513.738" y1="319.84" x2="515.744" y2="337.351" gradientUnits="userSpaceOnUse"><stop stop-color="#FF928E"/><stop offset="1" stop-color="#FEB3B1"/></linearGradient><linearGradient id="bZ" x1="479.675" y1="328.011" x2="515.419" y2="356.078" gradientUnits="userSpaceOnUse"><stop stop-color="#09005D"/><stop offset="1" stop-color="#1A0F91"/></linearGradient><linearGradient id="ca" x1="489.982" y1="376.408" x2="489.384" y2="358.467" gradientUnits="userSpaceOnUse"><stop stop-color="#4042E2"/><stop offset="1" stop-color="#4F52FF"/></linearGradient><linearGradient id="cb" x1="492.601" y1="322.082" x2="494.478" y2="338.461" gradientUnits="userSpaceOnUse"><stop stop-color="#FF928E"/><stop offset="1" stop-color="#FEB3B1"/></linearGradient><linearGradient id="cc" x1="504.185" y1="321.557" x2="501.933" y2="251.011" gradientUnits="userSpaceOnUse"><stop stop-color="#09005D"/><stop offset="1" stop-color="#1A0F91"/></linearGradient><linearGradient id="cd" x1="490.869" y1="157.262" x2="526.312" y2="305.548" gradientUnits="userSpaceOnUse"><stop stop-color="#4042E2"/><stop offset="1" stop-color="#4F52FF"/></linearGradient><linearGradient id="ce" x1="508.181" y1="198.04" x2="507.663" y2="221.142" gradientUnits="userSpaceOnUse"><stop stop-color="#FF928E"/><stop offset="1" stop-color="#FEB3B1"/></linearGradient><linearGradient id="cf" x1="504.157" y1="154.086" x2="539.601" y2="302.373" gradientUnits="userSpaceOnUse"><stop stop-color="#4042E2"/><stop offset="1" stop-color="#4F52FF"/></linearGradient><linearGradient id="cg" x1="510.115" y1="254.747" x2="526.126" y2="268.424" gradientUnits="userSpaceOnUse"><stop stop-color="#FF928E"/><stop offset="1" stop-color="#FEB3B1"/></linearGradient><linearGradient id="ch" x1="472.942" y1="202.325" x2="464.095" y2="206.061" gradientUnits="userSpaceOnUse"><stop stop-color="#09005D"/><stop offset="1" stop-color="#1A0F91"/></linearGradient><linearGradient id="ci" x1="468.555" y1="205.679" x2="469.215" y2="216.428" gradientUnits="userSpaceOnUse"><stop stop-color="#FF928E"/><stop offset="1" stop-color="#FEB3B1"/></linearGradient><linearGradient id="cj" x1="521.438" y1="196.799" x2="498.166" y2="202.832" gradientUnits="userSpaceOnUse"><stop stop-color="#FF928E"/><stop offset="1" stop-color="#FEB3B1"/></linearGradient><linearGradient id="ck" x1="515.208" y1="201.755" x2="498.512" y2="199.057" gradientUnits="userSpaceOnUse"><stop stop-color="#09005D"/><stop offset="1" stop-color="#1A0F91"/></linearGradient><linearGradient id="cl" x1="523.076" y1="213.274" x2="513.919" y2="200.239" gradientUnits="userSpaceOnUse"><stop stop-color="#FF928E"/><stop offset="1" stop-color="#FEB3B1"/></linearGradient><linearGradient id="cm" x1="366.082" y1="209.62" x2="372.606" y2="209.62" gradientUnits="userSpaceOnUse"><stop stop-color="#DAE3FE"/><stop offset="1" stop-color="#E9EFFD"/></linearGradient><linearGradient id="cn" x1="363.038" y1="217.02" x2="375.616" y2="217.02" gradientUnits="userSpaceOnUse"><stop stop-color="#DAE3FE"/><stop offset="1" stop-color="#E9EFFD"/></linearGradient><linearGradient id="co" x1="384.387" y1="215.968" x2="446.491" y2="215.968" gradientUnits="userSpaceOnUse"><stop stop-color="#DAE3FE"/><stop offset="1" stop-color="#E9EFFD"/></linearGradient><linearGradient id="cp" x1="385.023" y1="222.05" x2="418.954" y2="222.05" gradientUnits="userSpaceOnUse"><stop stop-color="#DAE3FE"/><stop offset="1" stop-color="#E9EFFD"/></linearGradient><linearGradient id="cq" x1="421.077" y1="222.05" x2="446.527" y2="222.05" gradientUnits="userSpaceOnUse"><stop stop-color="#DAE3FE"/><stop offset="1" stop-color="#E9EFFD"/></linearGradient><linearGradient id="cr" x1="147.368" y1="195.822" x2="147.885" y2="331.836" gradientUnits="userSpaceOnUse"><stop stop-color="#09005D"/><stop offset="1" stop-color="#1A0F91"/></linearGradient><linearGradient id="cs" x1="129.582" y1="233.275" x2="284.844" y2="440.297" gradientUnits="userSpaceOnUse"><stop stop-color="#4042E2"/><stop offset="1" stop-color="#4F52FF"/></linearGradient><linearGradient id="ct" x1="142.113" y1="211.37" x2="156.643" y2="211.37" gradientUnits="userSpaceOnUse"><stop stop-color="#4042E2"/><stop offset="1" stop-color="#4F52FF"/></linearGradient><linearGradient id="cu" x1="123.472" y1="263.156" x2="172.81" y2="263.156" gradientUnits="userSpaceOnUse"><stop stop-color="#DAE3FE"/><stop offset="1" stop-color="#E9EFFD"/></linearGradient><linearGradient id="cv" x1="132.802" y1="263.156" x2="163.483" y2="263.156" gradientUnits="userSpaceOnUse"><stop stop-color="#4042E2"/><stop offset="1" stop-color="#4F52FF"/></linearGradient><linearGradient id="cw" x1="111.192" y1="312.931" x2="119.05" y2="312.931" gradientUnits="userSpaceOnUse"><stop stop-color="#4042E2"/><stop offset="1" stop-color="#4F52FF"/></linearGradient><linearGradient id="cx" x1="92.913" y1="321.397" x2="43.64" y2="374.993" gradientUnits="userSpaceOnUse"><stop stop-color="#09005D"/><stop offset="1" stop-color="#1A0F91"/></linearGradient><linearGradient id="cy" x1="76.92" y1="325.376" x2="81.295" y2="325.376" gradientUnits="userSpaceOnUse"><stop stop-color="#FF928E"/><stop offset="1" stop-color="#FEB3B1"/></linearGradient><linearGradient id="cz" x1="68.992" y1="321.485" x2="78.662" y2="265.3" gradientUnits="userSpaceOnUse"><stop stop-color="#09005D"/><stop offset="1" stop-color="#1A0F91"/></linearGradient><linearGradient id="cA" x1="81.859" y1="311.235" x2="32.586" y2="364.828" gradientUnits="userSpaceOnUse"><stop stop-color="#09005D"/><stop offset="1" stop-color="#1A0F91"/></linearGradient><linearGradient id="cB" x1="61.146" y1="325.152" x2="64.924" y2="325.152" gradientUnits="userSpaceOnUse"><stop stop-color="#FF928E"/><stop offset="1" stop-color="#FEB3B1"/></linearGradient><linearGradient id="cC" x1="58.054" y1="319.602" x2="67.727" y2="263.418" gradientUnits="userSpaceOnUse"><stop stop-color="#09005D"/><stop offset="1" stop-color="#1A0F91"/></linearGradient><linearGradient id="cD" x1="16.838" y1="337.093" x2="-20.398" y2="405.876" gradientUnits="userSpaceOnUse"><stop stop-color="#FE7062"/><stop offset="1" stop-color="#FF928E"/></linearGradient><linearGradient id="cE" x1="94.93" y1="211.194" x2="117.289" y2="211.194" gradientUnits="userSpaceOnUse"><stop stop-color="#FF928E"/><stop offset="1" stop-color="#FEB3B1"/></linearGradient><linearGradient id="cF" x1="112.309" y1="207.445" x2="97.304" y2="241.583" gradientUnits="userSpaceOnUse"><stop stop-color="#FF928E"/><stop offset="1" stop-color="#FEB3B1"/></linearGradient><linearGradient id="cG" x1="98.188" y1="217.718" x2="130.77" y2="180.483" gradientUnits="userSpaceOnUse"><stop stop-color="#FF928E"/><stop offset="1" stop-color="#FEB3B1"/></linearGradient><linearGradient id="cH" x1="2.205" y1="329.17" x2="-35.031" y2="397.953" gradientUnits="userSpaceOnUse"><stop stop-color="#FE7062"/><stop offset="1" stop-color="#FF928E"/></linearGradient><linearGradient id="cI" x1="73.336" y1="211.962" x2="68.681" y2="247.13" gradientUnits="userSpaceOnUse"><stop stop-color="#FF928E"/><stop offset="1" stop-color="#FEB3B1"/></linearGradient><linearGradient id="cJ" x1="895.736" y1="503.989" x2="864.869" y2="492.857" gradientUnits="userSpaceOnUse"><stop stop-color="#FF928E"/><stop offset="1" stop-color="#FEB3B1"/></linearGradient><linearGradient id="cK" x1="55.938" y1="-951.816" x2="55.426" y2="-1004.29" gradientUnits="userSpaceOnUse"><stop stop-color="#09005D"/><stop offset="1" stop-color="#1A0F91"/></linearGradient><linearGradient id="cL" x1="894.568" y1="507.23" x2="863.701" y2="496.098" gradientUnits="userSpaceOnUse"><stop stop-color="#FF928E"/><stop offset="1" stop-color="#FEB3B1"/></linearGradient><linearGradient id="cM" x1="69.097" y1="258.688" x2="46.063" y2="240.262" gradientUnits="userSpaceOnUse"><stop stop-color="#FF928E"/><stop offset="1" stop-color="#FEB3B1"/></linearGradient><linearGradient id="cN" x1="61.561" y1="243.7" x2="52.713" y2="247.436" gradientUnits="userSpaceOnUse"><stop stop-color="#09005D"/><stop offset="1" stop-color="#1A0F91"/></linearGradient><linearGradient id="cO" x1="61.017" y1="250.478" x2="56.748" y2="253.666" gradientUnits="userSpaceOnUse"><stop stop-color="#FF928E"/><stop offset="1" stop-color="#FEB3B1"/></linearGradient></defs></svg>