<svg width="130" height="30" viewBox="0 0 130 30" fill="none" xmlns="http://www.w3.org/2000/svg">
<path d="M9.43952 9.27761C10.4291 9.27761 11.33 9.39168 12.142 9.61981C12.9793 9.8226 13.6645 10.0888 14.1973 10.4183C14.8571 10.8239 15.3646 11.3308 15.7198 11.9392C16.1005 12.5222 16.2908 13.2066 16.2908 13.9924C16.2908 14.8796 16.0117 15.6147 15.4534 16.1977C14.8952 16.7554 14.172 17.0342 13.2838 17.0342C12.3957 17.0342 11.6852 16.7807 11.1523 16.2738C10.6195 15.7668 10.353 15.0824 10.353 14.2205C10.353 13.4094 10.6068 12.7377 11.1143 12.2054C11.6218 11.6477 12.2054 11.2801 12.8651 11.1027C12.6621 10.8492 12.3576 10.6338 11.9516 10.4563C11.5456 10.2789 11.0889 10.1902 10.5814 10.1902C9.79477 10.1902 9.09695 10.4183 8.48795 10.8746C7.90433 11.3308 7.40951 11.9645 7.00351 12.7757C6.59751 13.5868 6.28032 14.5374 6.05195 15.6274C5.84895 16.7174 5.74745 17.9087 5.74745 19.2015C5.74745 21.1533 5.98851 22.6869 6.47064 23.8022C6.97814 24.9176 7.61251 25.7034 8.37376 26.1597C9.16039 26.6159 9.97239 26.8441 10.8098 26.8441C11.2919 26.8441 11.8121 26.768 12.3703 26.6159C12.954 26.4638 13.5376 26.1597 14.1212 25.7034C14.7302 25.2471 15.2885 24.6007 15.796 23.7642L16.443 23.9924C16.1639 24.9303 15.7072 25.8681 15.0728 26.806C14.4384 27.7439 13.6137 28.5171 12.5987 29.1254C11.5837 29.7084 10.3403 29.9999 8.86858 29.9999C7.2192 29.9999 5.72207 29.6451 4.3772 28.9353C3.05769 28.2002 1.99194 27.0849 1.17994 25.5893C0.393313 24.0684 0 22.1166 0 19.7338C0 17.4525 0.406001 15.5387 1.218 13.9924C2.05538 12.4208 3.18457 11.2421 4.60557 10.4563C6.02657 9.67051 7.63789 9.27761 9.43952 9.27761Z" fill="#25262B"/>
<path d="M31.5194 9.27761C32.3314 9.27761 32.9911 9.45505 33.4986 9.80993C34.0061 10.1395 34.3741 10.5704 34.6024 11.1027C34.8562 11.635 34.9831 12.1927 34.9831 12.7757C34.9831 13.7136 34.7039 14.4867 34.1457 15.0951C33.6128 15.6781 32.9023 15.9696 32.0142 15.9696C31.1261 15.9696 30.4282 15.7541 29.9207 15.3232C29.4386 14.8669 29.1976 14.2712 29.1976 13.5361C29.1976 12.8264 29.3498 12.2434 29.6543 11.7871C29.9842 11.3055 30.3902 10.8999 30.8723 10.5704C30.5171 10.469 30.1618 10.4817 29.8066 10.6084C29.3244 10.6844 28.8677 10.8872 28.4363 11.2168C28.0049 11.5209 27.637 11.9138 27.3325 12.3955C27.028 12.8517 26.7869 13.3587 26.6093 13.9164C26.4317 14.4487 26.3429 14.9683 26.3429 15.4753V25.5513C26.3429 26.768 26.6347 27.5918 27.2183 28.0228C27.8273 28.4537 28.7281 28.6691 29.9207 28.6691V29.4676C29.3371 29.4423 28.4871 29.4169 27.3706 29.3916C26.254 29.3409 25.0868 29.3155 23.8688 29.3155C22.8538 29.3155 21.8261 29.3409 20.7857 29.3916C19.7454 29.4169 18.9587 29.4423 18.4258 29.4676V28.6691C19.314 28.6691 19.9357 28.479 20.2909 28.0988C20.6715 27.7186 20.8619 26.9961 20.8619 25.9315V13.9544C20.8619 12.8137 20.6842 11.9772 20.329 11.4449C19.9991 10.8872 19.3647 10.6084 18.4258 10.6084V9.80993C19.2379 9.88597 20.0245 9.924 20.7857 9.924C21.8515 9.924 22.8411 9.88597 23.7546 9.80993C24.6935 9.70853 25.5562 9.56912 26.3429 9.39168V12.9278C26.6474 12.2434 27.0534 11.6223 27.5609 11.0647C28.0684 10.507 28.652 10.0761 29.3117 9.77191C29.9715 9.44238 30.7074 9.27761 31.5194 9.27761Z" fill="#25262B"/>
<path d="M45.4931 9.27761C47.7261 9.27761 49.477 9.93667 50.7457 11.2548C52.0145 12.5729 52.6489 14.7275 52.6489 17.7186H40.1263L40.0501 16.9962H47.853C47.8783 15.7541 47.8022 14.6135 47.6246 13.5742C47.447 12.5095 47.1678 11.6604 46.7872 11.0267C46.4066 10.3929 45.8991 10.0761 45.2647 10.0761C44.3766 10.0761 43.6153 10.6338 42.981 11.7491C42.372 12.8644 42.004 14.7148 41.8771 17.3004L41.9913 17.5285C41.966 17.8327 41.9406 18.1496 41.9152 18.4791C41.9152 18.8086 41.9152 19.1508 41.9152 19.5057C41.9152 21.2547 42.1563 22.6742 42.6384 23.7642C43.1459 24.8542 43.7803 25.6527 44.5415 26.1597C45.3028 26.6413 46.0767 26.8821 46.8633 26.8821C47.3962 26.8821 47.9418 26.806 48.5 26.6539C49.0837 26.4765 49.6673 26.1723 50.2509 25.7414C50.8345 25.2851 51.3801 24.6514 51.8876 23.8403L52.5727 24.0684C52.2682 25.0316 51.7861 25.9695 51.1264 26.8821C50.4666 27.7946 49.6292 28.5424 48.6142 29.1254C47.5992 29.7084 46.3812 29.9999 44.9602 29.9999C43.2347 29.9999 41.7122 29.6324 40.3927 28.8973C39.0732 28.1622 38.0328 27.0468 37.2716 25.5513C36.5357 24.0557 36.1678 22.1546 36.1678 19.8479C36.1678 17.4905 36.5611 15.526 37.3477 13.9544C38.1597 12.3828 39.2635 11.2168 40.6591 10.4563C42.0802 9.67051 43.6915 9.27761 45.4931 9.27761Z" fill="#25262B"/>
<path d="M60.1055 29.7338C58.9637 29.7338 58.0121 29.5183 57.2509 29.0874C56.4896 28.6565 55.9314 28.0861 55.5761 27.3764C55.2209 26.6413 55.0432 25.8428 55.0432 24.9809C55.0432 23.891 55.2843 23.0038 55.7664 22.3194C56.2739 21.635 56.921 21.0773 57.7076 20.6464C58.4942 20.2154 59.3189 19.8606 60.1817 19.5817C61.0698 19.3029 61.9072 19.0367 62.6938 18.7833C63.5058 18.5044 64.1529 18.1876 64.635 17.8327C65.1425 17.4525 65.3962 16.9709 65.3962 16.3878V13.4221C65.3962 12.763 65.2821 12.18 65.0537 11.673C64.8507 11.1407 64.5208 10.7351 64.0641 10.4563C63.6327 10.1775 63.0617 10.0381 62.3512 10.0381C61.8437 10.0381 61.3362 10.1141 60.8287 10.2662C60.3212 10.3929 59.9025 10.6211 59.5727 10.9506C60.2832 11.2041 60.8287 11.597 61.2094 12.1293C61.6154 12.6363 61.8184 13.2193 61.8184 13.8783C61.8184 14.7402 61.5139 15.4246 60.9049 15.9316C60.3212 16.4385 59.6234 16.692 58.8114 16.692C57.8979 16.692 57.2001 16.4132 56.718 15.8555C56.2612 15.2725 56.0329 14.5754 56.0329 13.7643C56.0329 13.0292 56.2105 12.4208 56.5657 11.9392C56.9464 11.4576 57.4665 11.0013 58.1263 10.5704C58.8368 10.1648 59.6869 9.84795 60.6765 9.61981C61.6915 9.39168 62.7826 9.27761 63.9499 9.27761C65.1171 9.27761 66.1702 9.40435 67.1091 9.65784C68.0479 9.88597 68.8346 10.3169 69.4689 10.9506C70.0526 11.5336 70.4332 12.256 70.6108 13.1179C70.7884 13.9544 70.8773 15.019 70.8773 16.3118V26.6539C70.8773 27.2877 70.9407 27.7313 71.0676 27.9847C71.1944 28.2129 71.4101 28.3269 71.7146 28.3269C71.943 28.3269 72.1587 28.2636 72.3617 28.1368C72.5901 28.0101 72.8311 27.858 73.0849 27.6806L73.4655 28.3269C72.9326 28.7832 72.3109 29.1381 71.6004 29.3916C70.9153 29.6197 70.1414 29.7338 69.2786 29.7338C68.3398 29.7338 67.5912 29.607 67.0329 29.3536C66.4747 29.0747 66.0687 28.7072 65.8149 28.2509C65.5866 27.7946 65.4724 27.2623 65.4724 26.6539C64.8634 27.6172 64.1275 28.3776 63.2647 28.9353C62.402 29.4676 61.3489 29.7338 60.1055 29.7338ZM62.808 27.3003C63.3155 27.3003 63.7722 27.1863 64.1782 26.9581C64.6096 26.7046 65.0156 26.2991 65.3962 25.7414V17.9468C65.1679 18.327 64.8507 18.6692 64.4447 18.9734C64.0387 19.2776 63.6073 19.5944 63.1506 19.9239C62.6938 20.2281 62.2497 20.5703 61.8184 20.9506C61.4124 21.3308 61.0825 21.7997 60.8287 22.3574C60.575 22.9151 60.4481 23.5868 60.4481 24.3726C60.4481 25.3612 60.6638 26.0963 61.0952 26.5779C61.5266 27.0595 62.0975 27.3003 62.808 27.3003Z" fill="#25262B"/>
<path d="M82.28 3.57422V9.80993H86.7713V10.5704H82.28V25.9315C82.28 26.692 82.4195 27.237 82.6987 27.5665C82.9778 27.8707 83.3965 28.0228 83.9547 28.0228C84.4115 28.0228 84.8682 27.858 85.325 27.5285C85.7817 27.1736 86.1877 26.5779 86.543 25.7414L87.19 26.0836C86.784 27.2243 86.1624 28.1622 85.325 28.8973C84.513 29.6324 83.3965 29.9999 81.9755 29.9999C81.1381 29.9999 80.4022 29.8859 79.7678 29.6577C79.1335 29.4549 78.6006 29.1381 78.1692 28.7072C77.611 28.1495 77.243 27.4651 77.0654 26.6539C76.8878 25.8174 76.799 24.7401 76.799 23.422V10.5704H73.6017V9.80993H76.799V4.79094C77.8647 4.79094 78.8417 4.70222 79.7298 4.52479C80.6433 4.322 81.4933 4.00514 82.28 3.57422Z" fill="#25262B"/>
<path d="M95.8516 9.39168V25.9315C95.8516 26.9961 96.0293 27.7186 96.3845 28.0988C96.7652 28.479 97.3995 28.6691 98.2877 28.6691V29.4676C97.8309 29.4423 97.1204 29.4169 96.1562 29.3916C95.1919 29.3409 94.215 29.3155 93.2253 29.3155C92.2357 29.3155 91.2334 29.3409 90.2184 29.3916C89.2034 29.4169 88.4421 29.4423 87.9346 29.4676V28.6691C88.8228 28.6691 89.4445 28.479 89.7997 28.0988C90.1803 27.7186 90.3706 26.9961 90.3706 25.9315V13.9544C90.3706 12.8137 90.193 11.9772 89.8378 11.4449C89.5079 10.8872 88.8735 10.6084 87.9346 10.6084V9.80993C88.7466 9.88597 89.5333 9.924 90.2945 9.924C91.3603 9.924 92.3499 9.88597 93.2634 9.80993C94.2023 9.70853 95.065 9.56912 95.8516 9.39168Z" fill="#25262B"/>
<path d="M118.176 9.80993V10.5704C117.694 10.6971 117.237 11.0013 116.806 11.4829C116.375 11.9392 115.956 12.725 115.55 13.8403L109.993 29.5437C109.587 29.5183 109.168 29.5056 108.737 29.5056C108.331 29.5056 107.925 29.5183 107.519 29.5437L100.744 12.7377C100.338 11.7491 99.9316 11.1534 99.5256 10.9506C99.145 10.7225 98.8151 10.6084 98.5359 10.6084V9.80993C99.348 9.86062 100.185 9.91132 101.048 9.96202C101.936 9.98737 102.9 10 103.941 10C104.727 10 105.552 9.98737 106.415 9.96202C107.303 9.91132 108.128 9.86062 108.889 9.80993V10.6084C108.356 10.6084 107.874 10.6338 107.443 10.6844C107.037 10.7351 106.757 10.8999 106.605 11.1787C106.453 11.4576 106.478 11.9519 106.681 12.6616L111.135 24.4486L110.754 24.9809L113.761 16.654C114.243 15.2852 114.446 14.1699 114.37 13.308C114.294 12.4208 114.015 11.7618 113.533 11.3308C113.05 10.8746 112.403 10.6211 111.591 10.5704V9.80993C111.972 9.83528 112.378 9.86062 112.809 9.88597C113.266 9.88597 113.698 9.89865 114.104 9.924C114.535 9.924 114.916 9.924 115.245 9.924C115.753 9.924 116.286 9.91132 116.844 9.88597C117.402 9.86062 117.846 9.83528 118.176 9.80993Z" fill="#25262B"/>
<path d="M127.038 9.39168V25.9315C127.038 26.9961 127.215 27.7186 127.571 28.0988C127.951 28.479 128.586 28.6691 129.474 28.6691V29.4676C129.017 29.4423 128.306 29.4169 127.342 29.3916C126.378 29.3409 125.401 29.3155 124.411 29.3155C123.422 29.3155 122.419 29.3409 121.404 29.3916C120.389 29.4169 119.628 29.4423 119.121 29.4676V28.6691C120.009 28.6691 120.63 28.479 120.986 28.0988C121.366 27.7186 121.557 26.9961 121.557 25.9315V13.9544C121.557 12.8137 121.379 11.9772 121.024 11.4449C120.694 10.8872 120.06 10.6084 119.121 10.6084V9.80993C119.933 9.88597 120.719 9.924 121.481 9.924C122.546 9.924 123.536 9.88597 124.449 9.80993C125.388 9.70853 126.251 9.56912 127.038 9.39168Z" fill="#25262B"/>
<path d="M126.581 0.798476C125.972 0.266159 125.135 0 124.069 0C123.003 0 122.153 0.266159 121.519 0.798476C120.91 1.30544 120.605 2.0152 120.605 2.92774C120.605 3.84028 120.91 4.56271 121.519 5.09503C122.153 5.602 123.003 5.85548 124.069 5.85548C125.135 5.85548 125.972 5.602 126.581 5.09503C127.215 4.56271 127.532 3.84028 127.532 2.92774C127.532 2.0152 127.215 1.30544 126.581 0.798476Z" fill="#6A91FD"/>
<path d="M95.3949 0.798476C94.7859 0.266159 93.9485 0 92.8828 0C91.817 0 90.9669 0.266159 90.3326 0.798476C89.7236 1.30544 89.4191 2.0152 89.4191 2.92774C89.4191 3.84028 89.7236 4.56271 90.3326 5.09503C90.9669 5.602 91.817 5.85548 92.8828 5.85548C93.9485 5.85548 94.7859 5.602 95.3949 5.09503C96.0293 4.56271 96.3465 3.84028 96.3465 2.92774C96.3465 2.0152 96.0293 1.30544 95.3949 0.798476Z" fill="#FEBD54"/>
</svg>
