<svg width="130" height="30" fill="none" xmlns="http://www.w3.org/2000/svg"><path d="M9.44 9.278c.99 0 1.89.114 2.702.342.837.203 1.523.469 2.055.798.66.406 1.168.913 1.523 1.521.38.583.57 1.268.57 2.053 0 .888-.278 1.623-.837 2.206-.558.557-1.281.836-2.17.836-.887 0-1.598-.253-2.13-.76-.534-.507-.8-1.192-.8-2.054 0-.81.254-1.482.761-2.015.508-.557 1.091-.925 1.751-1.102-.203-.254-.507-.47-.913-.647a3.388 3.388 0 0 0-1.37-.266c-.787 0-1.485.228-2.094.685-.584.456-1.078 1.09-1.484 1.9-.406.812-.724 1.762-.952 2.852a19.553 19.553 0 0 0-.305 3.574c0 1.952.242 3.486.724 4.601.507 1.116 1.142 1.901 1.903 2.358.786.456 1.598.684 2.436.684.482 0 1.002-.076 1.56-.228.584-.152 1.168-.456 1.751-.913.61-.456 1.168-1.102 1.675-1.939l.647.228c-.28.938-.736 1.876-1.37 2.814a7.748 7.748 0 0 1-2.474 2.32c-1.015.582-2.259.874-3.73.874-1.65 0-3.147-.355-4.492-1.065-1.32-.735-2.385-1.85-3.197-3.346C.393 24.07 0 22.117 0 19.734c0-2.282.406-4.195 1.218-5.742.837-1.571 1.967-2.75 3.388-3.536 1.42-.785 3.032-1.178 4.834-1.178Zm22.08 0c.811 0 1.471.177 1.979.532.507.33.875.76 1.103 1.293.254.532.381 1.09.381 1.673 0 .938-.28 1.71-.837 2.32-.533.582-1.244.874-2.132.874-.888 0-1.586-.216-2.093-.647-.482-.456-.723-1.052-.723-1.787 0-.71.152-1.293.456-1.749.33-.482.736-.887 1.218-1.217a1.706 1.706 0 0 0-1.065.038 3.014 3.014 0 0 0-1.37.609 4.1 4.1 0 0 0-1.105 1.178 6.004 6.004 0 0 0-.723 1.521 4.91 4.91 0 0 0-.266 1.56V25.55c0 1.217.292 2.04.875 2.472.61.43 1.51.646 2.703.646v.799a133.32 133.32 0 0 0-2.55-.076 77.293 77.293 0 0 0-3.502-.076c-1.015 0-2.043.025-3.083.076-1.04.025-1.827.05-2.36.076v-.799c.888 0 1.51-.19 1.865-.57.38-.38.57-1.103.57-2.168V13.954c0-1.14-.177-1.977-.532-2.51-.33-.557-.964-.836-1.903-.836V9.81c.812.076 1.599.114 2.36.114 1.066 0 2.055-.038 2.969-.114.939-.101 1.801-.24 2.588-.418v3.536a6.947 6.947 0 0 1 1.218-1.863 5.419 5.419 0 0 1 1.75-1.293c.66-.33 1.396-.494 2.208-.494Zm13.973 0c2.233 0 3.984.659 5.253 1.977 1.268 1.318 1.903 3.472 1.903 6.464H40.126l-.076-.723h7.803c.025-1.242-.05-2.382-.228-3.422-.178-1.065-.457-1.914-.838-2.547-.38-.634-.888-.95-1.522-.95-.888 0-1.65.557-2.284 1.672-.609 1.115-.977 2.966-1.104 5.551l.114.229-.076.95v1.027c0 1.749.241 3.168.723 4.258.508 1.09 1.142 1.889 1.904 2.396.76.481 1.535.722 2.321.722.533 0 1.079-.076 1.637-.228.584-.177 1.167-.482 1.75-.913.584-.456 1.13-1.09 1.638-1.9l.685.227c-.305.964-.787 1.901-1.447 2.814a7.929 7.929 0 0 1-2.512 2.243c-1.015.583-2.233.875-3.654.875-1.725 0-3.248-.368-4.567-1.103-1.32-.735-2.36-1.85-3.121-3.346-.736-1.495-1.104-3.396-1.104-5.703 0-2.357.393-4.322 1.18-5.894.812-1.571 1.916-2.737 3.311-3.498 1.421-.785 3.032-1.178 4.834-1.178Zm14.612 20.456c-1.141 0-2.093-.216-2.854-.647-.761-.43-1.32-1-1.675-1.71a5.433 5.433 0 0 1-.533-2.396c0-1.09.241-1.977.723-2.662a5.919 5.919 0 0 1 1.942-1.673 14.27 14.27 0 0 1 2.474-1.064 354 354 0 0 0 2.512-.799c.812-.279 1.459-.595 1.941-.95.507-.38.761-.862.761-1.445v-2.966c0-.659-.114-1.242-.342-1.749a2.364 2.364 0 0 0-.99-1.217c-.431-.278-1.002-.418-1.713-.418a5.28 5.28 0 0 0-1.522.228c-.508.127-.926.355-1.256.685.71.253 1.256.646 1.636 1.178a2.72 2.72 0 0 1 .61 1.75c0 .861-.305 1.546-.914 2.053-.584.507-1.282.76-2.094.76-.913 0-1.61-.279-2.093-.837-.457-.582-.685-1.28-.685-2.09 0-.736.178-1.344.533-1.826.38-.481.9-.938 1.56-1.369.71-.405 1.56-.722 2.55-.95a14.909 14.909 0 0 1 3.274-.342c1.167 0 2.22.126 3.16.38.938.228 1.725.659 2.359 1.293.584.583.964 1.305 1.142 2.167.177.836.266 1.901.266 3.194v10.342c0 .634.064 1.077.19 1.33.127.229.343.343.648.343a1.2 1.2 0 0 0 .647-.19 8.3 8.3 0 0 0 .723-.456l.38.646a5.867 5.867 0 0 1-1.865 1.065c-.685.228-1.459.342-2.321.342-.94 0-1.688-.127-2.246-.38-.558-.28-.964-.647-1.218-1.103-.228-.456-.343-.989-.343-1.597-.609.963-1.344 1.724-2.207 2.281-.863.533-1.916.799-3.16.799Zm2.703-2.434c.508 0 .964-.114 1.37-.342.432-.253.838-.659 1.218-1.217v-7.794a3.61 3.61 0 0 1-.951 1.026c-.406.305-.838.621-1.294.95-.457.305-.901.647-1.333 1.028-.406.38-.735.849-.99 1.406-.253.558-.38 1.23-.38 2.016 0 .988.216 1.723.647 2.205.432.482 1.002.722 1.713.722ZM82.28 3.574V9.81h4.491v.76H82.28v15.361c0 .761.14 1.306.419 1.636.279.304.698.456 1.256.456.457 0 .913-.165 1.37-.494.457-.355.863-.951 1.218-1.788l.647.343c-.406 1.14-1.028 2.078-1.865 2.813-.812.735-1.928 1.103-3.35 1.103-.837 0-1.573-.114-2.207-.342a3.9 3.9 0 0 1-1.599-.95 4.064 4.064 0 0 1-1.104-2.054c-.177-.837-.266-1.914-.266-3.232V10.57h-3.197v-.76h3.197V4.79c1.066 0 2.043-.088 2.93-.265a9.615 9.615 0 0 0 2.551-.95Zm13.572 5.818v16.54c0 1.064.177 1.787.532 2.167.381.38 1.016.57 1.904.57v.799a81.205 81.205 0 0 0-2.132-.076 55.816 55.816 0 0 0-2.93-.076c-.99 0-1.993.025-3.008.076-1.015.025-1.776.05-2.283.076v-.799c.888 0 1.51-.19 1.865-.57.38-.38.57-1.103.57-2.168V13.954c0-1.14-.177-1.977-.532-2.51-.33-.557-.964-.836-1.903-.836V9.81c.812.076 1.598.114 2.36.114 1.065 0 2.055-.038 2.968-.114.94-.101 1.802-.24 2.589-.418Zm22.324.418v.76c-.482.127-.939.431-1.37.913-.431.456-.85 1.242-1.256 2.357l-5.557 15.704a20.13 20.13 0 0 0-2.474 0l-6.775-16.806c-.406-.989-.812-1.585-1.218-1.787-.381-.229-.71-.343-.99-.343V9.81c.812.05 1.649.101 2.512.152.888.025 1.852.038 2.893.038.786 0 1.611-.013 2.474-.038.888-.05 1.713-.101 2.474-.152v.798c-.533 0-1.015.026-1.446.076-.406.051-.686.216-.838.495-.152.279-.127.773.076 1.483l4.454 11.787-.381.532 3.007-8.327c.482-1.369.685-2.484.609-3.346-.076-.887-.355-1.546-.837-1.977-.483-.456-1.13-.71-1.942-.76V9.81c.381.025.787.05 1.218.076.457 0 .889.013 1.295.038h1.141a44.915 44.915 0 0 0 2.931-.114Zm8.862-.418v16.54c0 1.064.177 1.787.533 2.167.38.38 1.015.57 1.903.57v.799a81.332 81.332 0 0 0-2.132-.076 55.803 55.803 0 0 0-2.931-.076c-.989 0-1.992.025-3.007.076-1.015.025-1.776.05-2.283.076v-.799c.888 0 1.509-.19 1.865-.57.38-.38.571-1.103.571-2.168V13.954c0-1.14-.178-1.977-.533-2.51-.33-.557-.964-.836-1.903-.836V9.81c.812.076 1.598.114 2.36.114 1.065 0 2.055-.038 2.968-.114.939-.101 1.802-.24 2.589-.418Z" fill="#25262B"/><path d="M126.581.798C125.972.266 125.135 0 124.069 0s-1.916.266-2.55.798c-.609.507-.914 1.217-.914 2.13 0 .912.305 1.635.914 2.167.634.507 1.484.76 2.55.76 1.066 0 1.903-.253 2.512-.76.634-.532.951-1.255.951-2.167 0-.913-.317-1.623-.951-2.13Z" fill="#6A91FD"/><path d="M95.395.798C94.785.266 93.948 0 92.883 0c-1.066 0-1.916.266-2.55.798-.61.507-.914 1.217-.914 2.13 0 .912.305 1.635.914 2.167.634.507 1.484.76 2.55.76 1.066 0 1.903-.253 2.512-.76.634-.532.952-1.255.952-2.167 0-.913-.318-1.623-.952-2.13Z" fill="#FEBD54"/></svg>